<?xml version="1.0" encoding="UTF-8" standalone="no"?>
<svg
   xmlns:dc="http://purl.org/dc/elements/1.1/"
   xmlns:cc="http://creativecommons.org/ns#"
   xmlns:rdf="http://www.w3.org/1999/02/22-rdf-syntax-ns#"
   xmlns:svg="http://www.w3.org/2000/svg"
   xmlns="http://www.w3.org/2000/svg"
   xmlns:sodipodi="http://sodipodi.sourceforge.net/DTD/sodipodi-0.dtd"
   xmlns:inkscape="http://www.inkscape.org/namespaces/inkscape"
   viewBox="0 0 700.71986 275.78261"
   version="1.1"
   id="svg3949"
   inkscape:version="0.48.5 r10040"
   width="100%"
   height="100%"
   sodipodi:docname="finr.svg">
  <metadata
     id="metadata3974">
    <rdf:RDF>
      <cc:Work
         rdf:about="">
        <dc:format>image/svg+xml</dc:format>
        <dc:type
           rdf:resource="http://purl.org/dc/dcmitype/StillImage" />
      </cc:Work>
    </rdf:RDF>
  </metadata>
  <defs
     id="defs3972" />
  <sodipodi:namedview
     pagecolor="#ffffff"
     bordercolor="#666666"
     borderopacity="1"
     objecttolerance="10"
     gridtolerance="10"
     guidetolerance="10"
     inkscape:pageopacity="0"
     inkscape:pageshadow="2"
     inkscape:window-width="1920"
     inkscape:window-height="1176"
     id="namedview3970"
     showgrid="false"
     inkscape:zoom="1.0839123"
     inkscape:cx="209.94613"
     inkscape:cy="80.791484"
     inkscape:window-x="1366"
     inkscape:window-y="0"
     inkscape:window-maximized="1"
     inkscape:current-layer="svg3949"
     fit-margin-top="2"
     fit-margin-left="2"
     fit-margin-right="2"
     fit-margin-bottom="2"
     showborder="false"
     inkscape:showpageshadow="false" />
  <clipPath
     id="box">
    <rect
       x="0"
       y="0"
       width="650"
       height="400"
       style="fill:none;stroke:none"
       id="rect3952" />
  </clipPath>
  <rect
     style="fill:#ffffff;fill-opacity:1;fill-rule:nonzero;stroke:#ffffff;stroke-width:1.08138275;stroke-linecap:round;stroke-linejoin:round;stroke-miterlimit:4;stroke-opacity:1;stroke-dasharray:none;stroke-dashoffset:0"
     id="rect4519"
     width="695.62823"
     height="270.68094"
     x="2.5355673"
     y="2.5515399" />
  <path
     inkscape:connector-curvature="0"
     id="path3960"
     style="fill:none;stroke:#000000;stroke-width:1"
     d="m 43.719494,32.481064 0,226.167136"
     sodipodi:nodetypes="cc" />
  <path
     inkscape:connector-curvature="0"
     id="path3962"
     style="fill:none;stroke:#000000;stroke-width:1"
     d="m 37.219494,243.22747 13,0 m -13,-97.65 13,0 m -13,-97.659996 13,0"
     sodipodi:nodetypes="cccccc" />
  <path
     inkscape:connector-curvature="0"
     id="path3964"
     style="fill:none;stroke:#000000;stroke-width:1"
     d="m 20.219494,145.57747 649.999996,0" />
  <path
     inkscape:connector-curvature="0"
     id="path3966"
     style="fill:none;stroke:#000000;stroke-width:1"
     d="m 43.719494,139.07747 0,13 m 152.339996,-13 0,13 m 152.35,-13 0,13 m 152.34,-13 0,13 m 152.35,-13 0,13"
     sodipodi:nodetypes="cccccccccc" />
  <path
     inkscape:connector-curvature="0"
     id="path3968"
     style="fill:none;stroke:#000000;stroke-width:2;stroke-miterlimit:4;stroke-dasharray:none"
     d="m 20.969494,168.11747 1.03,-1 1.03,-1 1.02,-1.01 1.02,-1 1.02,-1 1.02,-1 1.01,-1 1.02,-1.01 1.01,-1 1.01,-1 1.01,-1 1.01,-1 1,-1 1.01,-1 1,-1 1.01,-1 1,-1.01 1,-1 1,-1 1,-1 1,-1 1,-1 1,-1 1,-1 1,-1 1,-1 1,-1 1.01,-1 1,-1 1,-0.99 1,-1 1,-1 1.01,-1 1,-1 1.01,-1 1.01,-1 1.01,-1 1.01,-1 1.01,-0.99 1.01,-1 1.02,-1 1.02,-1 1.02,-1 1.02,-0.99 1.02,-1 1.03,-1 1.03,-1 1.03,-0.99 1.03,-1 1.04,-1 1.04,-0.99 1.04,-1 1.05,-1 1.05,-0.99 1.06,-1 1.05,-1 1.07,-0.99 1.06,-1 1.07,-0.99 1.08,-1 1.08,-1 1.08,-0.99 1.09,-1 1.1,-0.99 1.1,-1 1.11,-0.99 1.11,-0.99 1.12,-1 1.13,-0.989996 1.13,-1 1.14,-0.99 1.15,-0.99 1.15,-1 1.16,-0.99 1.17,-0.99 1.179996,-0.99 1.19,-1 1.2,-0.99 1.21,-0.99 1.22,-0.99 1.23,-0.99 1.24,-0.99 1.25,-0.99 1.26,-0.99 1.28,-0.99 1.29,-0.99 1.31,-0.99 1.32,-0.99 1.33,-0.99 1.35,-0.98 1.37,-0.99 1.39,-0.99 1.4,-0.98 1.43,-0.99 1.45,-0.98 1.47,-0.99 1.49,-0.98 1.53,-0.98 1.54,-0.98 1.58,-0.98 1.61,-0.98 1.64,-0.98 1.69,-0.98 1.72,-0.97 1.76,-0.98 1.81,-0.97 1.86,-0.97 1.92,-0.97 1.98,-0.96 2,-0.94 2,-0.9 2,-0.87 2,-0.83 2,-0.79 2,-0.75 2,-0.71 2,-0.68 2,-0.64 2,-0.6 2,-0.56 2,-0.52 2,-0.48 2,-0.44 2,-0.4 2,-0.36 2,-0.32 2,-0.28 2,-0.24 2,-0.19 2,-0.16 2,-0.12 2,-0.07 2,-0.04 2,0.01 2,0.05 2,0.09 2,0.12 2,0.17 2,0.22 2,0.25 2,0.29 2,0.33 2,0.37 2,0.42 2,0.45 2,0.49 2,0.54 2,0.57 2,0.61 2,0.65 2,0.69 2,0.72 2,0.77 2,0.8 2,0.84 2,0.88 2,0.91 2,0.95 2,0.99 2,1.02 1.96,1.03 1.9,1.03 1.83,1.03 1.79,1.03 1.74,1.02 1.69,1.03 1.66,1.02 1.61,1.02 1.59,1.02 1.55,1.02 1.53,1.02 1.49,1.02 1.48,1.01 1.45,1.02 1.42,1.01 1.41,1.02 1.38,1.01 1.37,1.01 1.35,1.02 1.33,1.01 1.32,1.01 1.3,1.01 1.29,1.01 1.28,1.01 1.26,1.01 1.25,1.01 1.23,1.01 1.23,1.01 1.22,1.01 1.2,1.01 1.2,1 1.18,1.01 1.18,1.01 1.17,1.01 1.15,1 1.16,1.01 1.14,1.01 1.14,0.999996 1.13,1.01 1.12,1 1.12,1.01 1.11,1.01 1.1,1 1.1,1.01 1.09,1 1.09,1.01 1.08,1 1.08,1 1.07,1.01 1.07,1 1.06,1.01 1.06,1 1.06,1 1.05,1.01 1.05,1 1.04,1 1.05,1.01 1.03,1 1.04,1 1.03,1.01 1.03,1 1.03,1 1.02,1 1.03,1 1.02,1.01 1.01,1 1.02,1 1.01,1 1.02,1 1.01,1.01 1.01,1 1.01,1 1,1 1.01,1 1,1 1.01,1 1,1 1,1 1,1 1,1 1,1 1,1 1,1 1,1 1,1 1,1 1,1 1.01,1 1,1 1,1 1,1 1,1 1.01,1 1,1 1.01,1 1.01,1 1,0.99 1.01,1 1.02,1 1.01,1 1.01,1 1.02,1 1.02,0.99 1.02,1 1.02,1 1.03,1 1.03,0.99 1.03,1 1.03,1 1.04,1 1.04,0.99 1.04,1 1.05,1 1.05,0.99 1.05,1 1.06,1 1.06,0.99 1.06,1 1.07,0.99 1.08,1 1.08,0.99 1.08,1 1.09,0.99 1.09,1 1.1,0.99 1.11,1 1.11,0.99 1.12,1 1.12,0.99 1.13,1 1.14,0.99 1.15,0.99 1.15,1 1.16,0.99 1.17,0.99 1.17,0.99 1.19,1 1.2,0.99 1.2,0.99 1.22,0.99 1.22,0.99 1.24,0.99 1.25,0.99 1.26,0.99 1.28,0.99 1.28,0.99 1.3,0.99 1.32,0.99 1.33,0.99 1.35,0.99 1.36,0.98 1.38,0.99 1.4,0.98 1.42,0.99 1.45,0.98 1.46,0.99 1.49,0.98 1.51,0.98 1.54,0.99 1.57,0.98 1.61,0.98 1.63,0.97 1.67,0.98 1.71,0.98 1.75,0.97 1.8,0.97 1.85,0.98 1.9,0.96 1.97,0.97 2,0.95 2,0.91 2,0.87 2,0.84 2,0.8 2,0.77 2,0.72 2,0.69 2,0.65 2,0.6 2,0.57 2,0.53 2,0.5 2,0.45 2,0.41 2,0.37 2,0.33 2,0.29 2,0.25 2,0.21 2,0.17 2,0.12 2,0.09 2,0.05 2,0 2,-0.04 2,-0.07 2,-0.12 2,-0.16 2,-0.2 2,-0.24 2,-0.28 2,-0.33 2,-0.36 2,-0.4 2,-0.44 2,-0.48 2,-0.53 2,-0.56 2,-0.6 2,-0.64 2,-0.68 2,-0.71 2,-0.76 2,-0.79 2,-0.83 2,-0.87 2,-0.9 2,-0.94 2,-0.98 2,-1.01 1.97,-1.03 1.91,-1.03 1.86,-1.03 1.79,-1.03 1.75,-1.03 1.71,-1.02 1.66,-1.02 1.63,-1.03 1.59,-1.02 1.57,-1.02 1.53,-1.01 1.5,-1.02 1.48,-1.02 1.46,-1.01 1.43,-1.02 1.41,-1.01 1.39,-1.02 1.37,-1.01 1.36,-1.01 1.34,-1.01 1.32,-1.02 1.3,-1.01 1.3,-1.01 1.27,-1.01 1.27,-1.01 1.25,-1.01 1.24,-1.01 1.23,-1.01 1.22,-1 1.21,-1.01 1.19,-1.01 1.19,-1.01 1.18,-1.01 1.17,-1 1.16,-1.01 1.16,-1.01 1.14,-1 1.14,-1.01 1.13,-1.01 1.13,-1 1.11,-1.01 1.12,-1 1.1,-1.01 1.1,-1 1.1,-1.01 1.08,-1 1.09,-1.01 1.08,-1 1.07,-1.01 1.07,-1 1.07,-1 1.06,-1.01 1.05,-1 1.06,-1.01 1.05,-1 1.04,-1 1.04,-1.01 1.04,-1 1.04,-1 1.03,-1 1.03,-1.01 1.03,-1 1.03,-1 1.02,-1 1.02,-1.01 1.02,-1 1.02,-1 1.01,-1 1.01,-1 1.01,-1 1.01,-1.01 1.01,-1 1.01,-1 1.01,-1 1,-1 1,-1 1.01,-1 1,-1 1,-1 1,-1 1,-1 1,-1 1,-1 1,-1 1,-1 1,-1 1,-1 1,-1 1.01,-1 1,-1 1,-1 1,-1 1.01,-1 1,-1 1.01,-1"
     sodipodi:nodetypes="cccccccccccccccccccccccccccccccccccccccccccccccccccccccccccccccccccccccccccccccccccccccccccccccccccccccccccccccccccccccccccccccccccccccccccccccccccccccccccccccccccccccccccccccccccccccccccccccccccccccccccccccccccccccccccccccccccccccccccccccccccccccccccccccccccccccccccccccccccccccccccccccccccccccccccccccccccccccccccccccccccccccccccccccccccccccccccccccccccccccccccccccccccccccccccccccccccccccccccccccccccccccccccccccccccccccccccccccccccccccccccccccccccccccccccccccccccccccccccc" />
  <text
     xml:space="preserve"
     style="font-size:20px;font-style:normal;font-weight:normal;line-height:125%;letter-spacing:0px;word-spacing:0px;fill:#000000;fill-opacity:1;stroke:none;font-family:Bitstream Vera Sans"
     x="358.77499"
     y="139.47591"
     id="text3980"
     sodipodi:linespacing="125%"><tspan
       sodipodi:role="line"
       id="tspan3982"
       x="358.77499"
       y="139.47591">π/2</tspan></text>
  <text
     xml:space="preserve"
     style="font-size:20px;font-style:normal;font-weight:normal;line-height:125%;letter-spacing:0px;word-spacing:0px;fill:#000000;fill-opacity:1;stroke:none;font-family:Bitstream Vera Sans"
     x="204.1322"
     y="39.937916"
     id="text3984"
     sodipodi:linespacing="125%"><tspan
       sodipodi:role="line"
       x="204.1322"
       y="39.937916"
       id="tspan3996">f(x)=sin(x)</tspan></text>
  <text
     xml:space="preserve"
     style="font-size:20px;font-style:normal;font-weight:normal;line-height:125%;letter-spacing:0px;word-spacing:0px;fill:#000000;fill-opacity:1;stroke:none;font-family:Bitstream Vera Sans"
     x="678.45618"
     y="151.33409"
     id="text3988"
     sodipodi:linespacing="125%"><tspan
       sodipodi:role="line"
       id="tspan3990"
       x="678.45618"
       y="151.33409">x</tspan></text>
  <text
     xml:space="preserve"
     style="font-size:20px;font-style:normal;font-weight:normal;line-height:125%;letter-spacing:0px;word-spacing:0px;fill:#000000;fill-opacity:1;stroke:none;font-family:Bitstream Vera Sans"
     x="21.286791"
     y="55.799335"
     id="text3992"
     sodipodi:linespacing="125%"><tspan
       sodipodi:role="line"
       id="tspan3994"
       x="21.286791"
       y="55.799335">1</tspan></text>
  <text
     xml:space="preserve"
     style="font-size:20px;font-style:normal;font-weight:normal;line-height:125%;letter-spacing:0px;word-spacing:0px;fill:#000000;fill-opacity:1;stroke:none;font-family:Bitstream Vera Sans"
     x="42.670135"
     y="23.423176"
     id="text4000"
     sodipodi:linespacing="125%"><tspan
       sodipodi:role="line"
       id="tspan4002"
       x="42.670135"
       y="23.423176">y</tspan></text>
</svg>
