<?xml version="1.0" standalone="no"?><!DOCTYPE svg PUBLIC "-//W3C//DTD SVG 1.1//EN" "http://www.w3.org/Graphics/SVG/1.1/DTD/svg11.dtd"><svg xmlns="http://www.w3.org/2000/svg" viewBox="0 0 650 400" version="1.1"><clipPath id="box"><rect x="0" y="0" width="650" height="400" style="fill:none;stroke:none;" /></clipPath><g clip-path="url(#box)"><rect x="0.00" y="0.00" width="650.00" height="400.00" style="fill:#FFFFFF;stroke:none;" /><path d="M0.00 314.00 L650.00 314.00 M0.00 216.00 L650.00 216.00 M0.00 119.00 L650.00 119.00 M0.00 21.00 L650.00 21.00 M23.00 0.00 L23.00 400.00 M175.00 0.00 L175.00 400.00 M328.00 0.00 L328.00 400.00 M480.00 0.00 L480.00 400.00 M632.00 0.00 L632.00 400.00 " style="fill:none;stroke:#969696;stroke-width:1;" /><path d="M23.50 0.00 L23.50 400.00 " style="fill:none;stroke:#000000;stroke-width:1;" /><path d="M17.00 412.11 L30.00 412.11 M17.00 314.45 L30.00 314.45 M17.00 216.80 L30.00 216.80 M17.00 119.14 L30.00 119.14 M17.00 21.48 L30.00 21.48 " style="fill:none;stroke:#000000;stroke-width:1;" /><path d="M0.00 216.80 L650.00 216.80 " style="fill:none;stroke:#000000;stroke-width:1;" /><path d="M-128.84 210.30 L-128.84 223.30 M23.50 210.30 L23.50 223.30 M175.84 210.30 L175.84 223.30 M328.19 210.30 L328.19 223.30 M480.53 210.30 L480.53 223.30 M632.88 210.30 L632.88 223.30 " style="fill:none;stroke:#000000;stroke-width:1;" /><path d="M-10.00 200.00 L-0.25 240.31 L0.75 239.34 L1.78 238.34 L2.81 237.34 L3.83 236.33 L4.85 235.33 L5.87 234.33 L6.89 233.33 L7.90 232.33 L8.92 231.32 L9.93 230.32 L10.94 229.32 L11.95 228.32 L12.96 227.32 L13.96 226.32 L14.97 225.32 L15.97 224.32 L16.98 223.32 L17.98 222.31 L18.98 221.31 L19.98 220.31 L20.98 219.31 L21.98 218.31 L22.98 217.31 L23.98 216.31 L24.98 215.31 L25.98 214.31 L26.98 213.31 L27.98 212.31 L28.99 211.31 L29.99 210.31 L30.99 209.32 L31.99 208.32 L32.99 207.32 L34.00 206.32 L35.00 205.32 L36.01 204.32 L37.02 203.32 L38.03 202.32 L39.04 201.32 L40.05 200.33 L41.06 199.33 L42.08 198.33 L43.10 197.33 L44.12 196.33 L45.14 195.34 L46.16 194.34 L47.19 193.34 L48.22 192.34 L49.25 191.35 L50.28 190.35 L51.32 189.35 L52.36 188.36 L53.40 187.36 L54.45 186.36 L55.50 185.37 L56.56 184.37 L57.61 183.37 L58.68 182.38 L59.74 181.38 L60.81 180.39 L61.89 179.39 L62.97 178.39 L64.05 177.40 L65.14 176.40 L66.24 175.41 L67.34 174.41 L68.45 173.42 L69.56 172.43 L70.68 171.43 L71.81 170.44 L72.94 169.44 L74.08 168.45 L75.23 167.46 L76.38 166.46 L77.54 165.47 L78.71 164.48 L79.89 163.49 L81.08 162.49 L82.28 161.50 L83.49 160.51 L84.71 159.52 L85.94 158.53 L87.18 157.54 L88.43 156.55 L89.69 155.56 L90.97 154.57 L92.26 153.58 L93.57 152.59 L94.89 151.60 L96.22 150.61 L97.57 149.63 L98.94 148.64 L100.33 147.65 L101.73 146.67 L103.16 145.68 L104.61 144.70 L106.08 143.71 L107.57 142.73 L109.10 141.75 L110.64 140.77 L112.22 139.79 L113.83 138.81 L115.47 137.83 L117.16 136.85 L118.88 135.88 L120.64 134.90 L122.45 133.93 L124.31 132.96 L126.23 131.99 L128.21 131.03 L130.21 130.09 L132.21 129.19 L134.21 128.32 L136.21 127.49 L138.21 126.70 L140.21 125.95 L142.21 125.24 L144.21 124.56 L146.21 123.92 L148.21 123.32 L150.21 122.76 L152.21 122.24 L154.21 121.76 L156.21 121.32 L158.21 120.92 L160.21 120.56 L162.21 120.24 L164.21 119.96 L166.21 119.72 L168.21 119.53 L170.21 119.37 L172.21 119.25 L174.21 119.18 L176.21 119.14 L178.21 119.15 L180.21 119.20 L182.21 119.29 L184.21 119.41 L186.21 119.58 L188.21 119.80 L190.21 120.05 L192.21 120.34 L194.21 120.67 L196.21 121.04 L198.21 121.46 L200.21 121.91 L202.21 122.40 L204.21 122.94 L206.21 123.51 L208.21 124.12 L210.21 124.77 L212.21 125.46 L214.21 126.18 L216.21 126.95 L218.21 127.75 L220.21 128.59 L222.21 129.47 L224.21 130.38 L226.21 131.33 L228.21 132.32 L230.21 133.34 L232.17 134.37 L234.07 135.40 L235.90 136.43 L237.69 137.46 L239.43 138.48 L241.12 139.51 L242.78 140.53 L244.39 141.55 L245.98 142.57 L247.53 143.59 L249.06 144.61 L250.55 145.63 L252.03 146.64 L253.48 147.66 L254.90 148.67 L256.31 149.69 L257.69 150.70 L259.06 151.71 L260.41 152.73 L261.74 153.74 L263.06 154.75 L264.36 155.76 L265.65 156.77 L266.93 157.78 L268.19 158.79 L269.44 159.80 L270.67 160.81 L271.90 161.82 L273.12 162.83 L274.32 163.84 L275.52 164.84 L276.70 165.85 L277.88 166.86 L279.05 167.87 L280.20 168.87 L281.36 169.88 L282.50 170.89 L283.64 171.89 L284.77 172.90 L285.89 173.90 L287.01 174.91 L288.12 175.92 L289.22 176.92 L290.32 177.93 L291.41 178.93 L292.50 179.94 L293.58 180.94 L294.66 181.94 L295.73 182.95 L296.80 183.95 L297.86 184.96 L298.92 185.96 L299.98 186.96 L301.03 187.97 L302.08 188.97 L303.12 189.97 L304.17 190.98 L305.20 191.98 L306.24 192.98 L307.27 193.99 L308.30 194.99 L309.33 195.99 L310.35 196.99 L311.38 197.99 L312.40 199.00 L313.41 200.00 L314.43 201.00 L315.44 202.00 L316.46 203.00 L317.47 204.01 L318.48 205.01 L319.49 206.01 L320.49 207.01 L321.50 208.01 L322.50 209.01 L323.51 210.01 L324.51 211.01 L325.51 212.01 L326.51 213.01 L327.51 214.01 L328.51 215.01 L329.51 216.01 L330.51 217.01 L331.51 218.01 L332.51 219.01 L333.51 220.01 L334.51 221.01 L335.52 222.01 L336.52 223.01 L337.52 224.01 L338.52 225.01 L339.52 226.01 L340.53 227.01 L341.53 228.01 L342.54 229.01 L343.55 230.01 L344.55 231.00 L345.56 232.00 L346.58 233.00 L347.59 234.00 L348.60 235.00 L349.62 236.00 L350.64 236.99 L351.66 237.99 L352.68 238.99 L353.71 239.99 L354.74 240.98 L355.77 241.98 L356.80 242.98 L357.84 243.98 L358.88 244.97 L359.92 245.97 L360.97 246.97 L362.02 247.96 L363.07 248.96 L364.13 249.96 L365.19 250.95 L366.25 251.95 L367.32 252.94 L368.40 253.94 L369.48 254.93 L370.56 255.93 L371.65 256.92 L372.74 257.92 L373.84 258.91 L374.95 259.91 L376.06 260.90 L377.18 261.90 L378.30 262.89 L379.43 263.89 L380.57 264.88 L381.72 265.87 L382.87 266.87 L384.03 267.86 L385.20 268.85 L386.37 269.84 L387.56 270.84 L388.76 271.83 L389.96 272.82 L391.18 273.81 L392.40 274.80 L393.64 275.79 L394.89 276.78 L396.15 277.77 L397.43 278.76 L398.71 279.75 L400.01 280.74 L401.33 281.73 L402.66 282.72 L404.01 283.71 L405.37 284.69 L406.75 285.68 L408.15 286.66 L409.57 287.65 L411.02 288.63 L412.48 289.62 L413.97 290.60 L415.48 291.58 L417.02 292.57 L418.59 293.55 L420.20 294.53 L421.83 295.50 L423.50 296.48 L425.21 297.46 L426.96 298.43 L428.76 299.40 L430.61 300.38 L432.51 301.34 L434.48 302.31 L436.48 303.26 L438.48 304.17 L440.48 305.04 L442.48 305.88 L444.48 306.68 L446.48 307.45 L448.48 308.17 L450.48 308.86 L452.48 309.51 L454.48 310.11 L456.48 310.68 L458.48 311.21 L460.48 311.71 L462.48 312.16 L464.48 312.57 L466.48 312.94 L468.48 313.27 L470.48 313.56 L472.48 313.81 L474.48 314.02 L476.48 314.19 L478.48 314.31 L480.48 314.40 L482.48 314.45 L484.48 314.45 L486.48 314.41 L488.48 314.34 L490.48 314.22 L492.48 314.06 L494.48 313.86 L496.48 313.62 L498.48 313.34 L500.48 313.01 L502.48 312.65 L504.48 312.25 L506.48 311.81 L508.48 311.33 L510.48 310.80 L512.48 310.24 L514.48 309.64 L516.48 309.00 L518.48 308.32 L520.48 307.61 L522.48 306.85 L524.48 306.06 L526.48 305.23 L528.48 304.36 L530.48 303.46 L532.48 302.52 L534.48 301.54 L536.48 300.53 L538.45 299.50 L540.36 298.47 L542.22 297.44 L544.01 296.41 L545.76 295.38 L547.47 294.36 L549.13 293.34 L550.76 292.31 L552.35 291.29 L553.92 290.27 L555.45 289.26 L556.95 288.24 L558.43 287.22 L559.89 286.21 L561.32 285.19 L562.73 284.18 L564.12 283.16 L565.49 282.15 L566.85 281.14 L568.19 280.13 L569.51 279.11 L570.81 278.10 L572.11 277.09 L573.38 276.08 L574.65 275.07 L575.90 274.06 L577.14 273.05 L578.37 272.04 L579.59 271.04 L580.80 270.03 L581.99 269.02 L583.18 268.01 L584.36 267.00 L585.53 266.00 L586.69 264.99 L587.85 263.98 L588.99 262.98 L590.13 261.97 L591.26 260.96 L592.39 259.96 L593.50 258.95 L594.62 257.95 L595.72 256.94 L596.82 255.94 L597.92 254.93 L599.00 253.93 L600.09 252.92 L601.17 251.92 L602.24 250.91 L603.31 249.91 L604.38 248.91 L605.44 247.90 L606.49 246.90 L607.55 245.89 L608.60 244.89 L609.64 243.89 L610.68 242.88 L611.72 241.88 L612.76 240.88 L613.79 239.88 L614.82 238.87 L615.85 237.87 L616.88 236.87 L617.90 235.87 L618.92 234.86 L619.94 233.86 L620.96 232.86 L621.97 231.86 L622.98 230.86 L623.99 229.86 L625.00 228.85 L626.01 227.85 L627.02 226.85 L628.03 225.85 L629.03 224.85 L630.03 223.85 L631.04 222.85 L632.04 221.85 L633.04 220.85 L634.04 219.85 L635.04 218.85 L636.04 217.85 L637.04 216.85 L638.04 215.85 L639.04 214.85 L640.04 213.85 L641.04 212.85 L642.04 211.85 L643.05 210.85 L644.05 209.85 L645.05 208.85 L646.05 207.85 L647.06 206.85 L648.06 205.85 L649.07 204.85 " style="fill:none;stroke:#000000;stroke-width:1;" /></g></svg>