<?xml version="1.0" encoding="UTF-8" standalone="no"?>
<!-- Created with Inkscape (http://www.inkscape.org/) -->

<svg
   xmlns:dc="http://purl.org/dc/elements/1.1/"
   xmlns:cc="http://creativecommons.org/ns#"
   xmlns:rdf="http://www.w3.org/1999/02/22-rdf-syntax-ns#"
   xmlns:svg="http://www.w3.org/2000/svg"
   xmlns="http://www.w3.org/2000/svg"
   xmlns:sodipodi="http://sodipodi.sourceforge.net/DTD/sodipodi-0.dtd"
   xmlns:inkscape="http://www.inkscape.org/namespaces/inkscape"
   width="708.45276"
   height="450.5"
   id="svg2"
   version="1.1"
   inkscape:version="0.48.5 r10040"
   sodipodi:docname="raymarcher-dfe.svg">
  <defs
     id="defs4" />
  <sodipodi:namedview
     id="base"
     pagecolor="#e45d50"
     bordercolor="#666666"
     borderopacity="1.0"
     inkscape:pageopacity="1"
     inkscape:pageshadow="2"
     inkscape:zoom="1.5239223"
     inkscape:cx="294.70639"
     inkscape:cy="197.0491"
     inkscape:document-units="px"
     inkscape:current-layer="layer1"
     showgrid="false"
     inkscape:showpageshadow="false"
     inkscape:snap-global="true"
     inkscape:window-width="1680"
     inkscape:window-height="1026"
     inkscape:window-x="1366"
     inkscape:window-y="0"
     inkscape:window-maximized="1"
     fit-margin-left="1.8"
     units="mm"
     fit-margin-top="2"
     fit-margin-right="2"
     fit-margin-bottom="2">
    <inkscape:grid
       type="xygrid"
       id="grid2985"
       empspacing="5"
       visible="true"
       enabled="true"
       snapvisiblegridlinesonly="true"
       units="mm"
       spacingx="1mm"
       spacingy="1mm"
       originx="-2.0588879mm"
       originy="-43mm" />
  </sodipodi:namedview>
  <metadata
     id="metadata7">
    <rdf:RDF>
      <cc:Work
         rdf:about="">
        <dc:format>image/svg+xml</dc:format>
        <dc:type
           rdf:resource="http://purl.org/dc/dcmitype/StillImage" />
        <dc:title />
      </cc:Work>
    </rdf:RDF>
  </metadata>
  <g
     inkscape:label="Layer 1"
     inkscape:groupmode="layer"
     id="layer1"
     transform="translate(-7.2952716,-449.50001)">
    <flowRoot
       xml:space="preserve"
       id="flowRoot3803"
       style="font-size:40px;font-style:normal;font-weight:normal;line-height:125%;letter-spacing:0px;word-spacing:0px;fill:#000000;fill-opacity:1;stroke:none;font-family:Bitstream Vera Sans"
       transform="translate(0,308.2677)"><flowRegion
         id="flowRegion3805"><rect
           id="rect3807"
           width="108.02913"
           height="43.983288"
           x="56.329475"
           y="183.11464" /></flowRegion><flowPara
         id="flowPara3809">A</flowPara></flowRoot>    <path
       sodipodi:type="arc"
       style="fill:#ffffff;fill-opacity:1;fill-rule:nonzero;stroke:none"
       id="path3825"
       sodipodi:cx="381.2348"
       sodipodi:cy="160.26254"
       sodipodi:rx="88.58268"
       sodipodi:ry="88.58268"
       d="m 469.81748,160.26254 c 0,48.92287 -39.65981,88.58268 -88.58268,88.58268 -48.92286,0 -88.58268,-39.65981 -88.58268,-88.58268 0,-48.92286 39.65982,-88.582677 88.58268,-88.582677 48.92287,0 88.58268,39.659817 88.58268,88.582677 z"
       transform="translate(8.5289755,644.06816)" />
    <path
       transform="translate(8.5289775,413.7532)"
       sodipodi:type="arc"
       style="fill:#ffffff;fill-opacity:1;fill-rule:nonzero;stroke:none"
       id="path3825-7"
       sodipodi:cx="381.2348"
       sodipodi:cy="160.26254"
       sodipodi:rx="88.58268"
       sodipodi:ry="88.58268"
       d="m 469.81748,160.26254 c 0,48.92287 -39.65981,88.58268 -88.58268,88.58268 -48.92286,0 -88.58268,-39.65981 -88.58268,-88.58268 0,-48.92286 39.65982,-88.582677 88.58268,-88.582677 48.92287,0 88.58268,39.659817 88.58268,88.582677 z" />
    <path
       transform="translate(238.84394,644.06816)"
       sodipodi:type="arc"
       style="fill:#ffffff;fill-opacity:1;fill-rule:nonzero;stroke:none"
       id="path3825-0"
       sodipodi:cx="381.2348"
       sodipodi:cy="160.26254"
       sodipodi:rx="88.58268"
       sodipodi:ry="88.58268"
       d="m 469.81748,160.26254 c 0,48.92287 -39.65981,88.58268 -88.58268,88.58268 -48.92286,0 -88.58268,-39.65981 -88.58268,-88.58268 0,-48.92286 39.65982,-88.582677 88.58268,-88.582677 48.92287,0 88.58268,39.659817 88.58268,88.582677 z" />
    <path
       transform="translate(238.84394,413.7532)"
       sodipodi:type="arc"
       style="fill:#ffffff;fill-opacity:1;fill-rule:nonzero;stroke:none"
       id="path3825-6"
       sodipodi:cx="381.2348"
       sodipodi:cy="160.26254"
       sodipodi:rx="88.58268"
       sodipodi:ry="88.58268"
       d="m 469.81748,160.26254 c 0,48.92287 -39.65981,88.58268 -88.58268,88.58268 -48.92286,0 -88.58268,-39.65981 -88.58268,-88.58268 0,-48.92286 39.65982,-88.582677 88.58268,-88.582677 48.92287,0 88.58268,39.659817 88.58268,88.582677 z" />
    <g
       id="g3879"
       transform="matrix(-0.60214359,1.4083177,-1.4083177,-0.60214359,952.81745,884.48922)">
      <path
         transform="translate(79.72441,502.33587)"
         inkscape:connector-curvature="0"
         id="path3873"
         d="m -65.551181,46.876679 42.519685,0"
         style="fill:none;stroke:#000000;stroke-width:1px;stroke-linecap:butt;stroke-linejoin:miter;stroke-opacity:1" />
      <path
         transform="translate(79.72441,502.33587)"
         inkscape:connector-curvature="0"
         id="path3875"
         d="M -44.291339,78.766443 -58.464567,46.876679"
         style="fill:none;stroke:#000000;stroke-width:1px;stroke-linecap:butt;stroke-linejoin:miter;stroke-opacity:1" />
      <path
         transform="translate(79.72441,502.33587)"
         inkscape:connector-curvature="0"
         id="path3877"
         d="M -44.291339,78.766443 -30.11811,46.876679"
         style="fill:none;stroke:#000000;stroke-width:1px;stroke-linecap:butt;stroke-linejoin:miter;stroke-opacity:1" />
    </g>
    <path
       style="fill:none;stroke:#000000;stroke-width:2;stroke-linecap:butt;stroke-linejoin:miter;stroke-miterlimit:4;stroke-opacity:1;stroke-dasharray:none"
       d="M 159.44882,602.3622 551.345,748.99478"
       id="path3973"
       inkscape:connector-curvature="0"
       sodipodi:nodetypes="cc" />
    <g
       id="g4304">
      <path
         transform="translate(97.111659,431.46974)"
         d="m 207.61274,170.89247 c 0,80.23349 -65.04209,145.27559 -145.275586,145.27559 -80.233492,0 -145.275589,-65.0421 -145.275589,-145.27559 0,-80.233491 65.042097,-145.275588 145.275589,-145.275588 80.233496,0 145.275586,65.042097 145.275586,145.275588 z"
         sodipodi:ry="145.27559"
         sodipodi:rx="145.27559"
         sodipodi:cy="170.89247"
         sodipodi:cx="62.337154"
         id="path3975"
         style="fill:none;stroke:#ffffff;stroke-width:2;stroke-miterlimit:4;stroke-opacity:1;stroke-dasharray:6,6;stroke-dashoffset:0"
         sodipodi:type="arc" />
      <path
         transform="translate(97.111659,431.46974)"
         d="m 232.23916,221.06351 c 0,18.73612 -15.18863,33.92475 -33.92475,33.92475 -18.73613,0 -33.92475,-15.18863 -33.92475,-33.92475 0,-18.73613 15.18862,-33.92475 33.92475,-33.92475 18.73612,0 33.92475,15.18862 33.92475,33.92475 z"
         sodipodi:ry="33.924751"
         sodipodi:rx="33.924751"
         sodipodi:cy="221.06351"
         sodipodi:cx="198.31441"
         id="path4087"
         style="fill:none;stroke:#ffffff;stroke-width:2;stroke-linecap:round;stroke-linejoin:round;stroke-miterlimit:4;stroke-opacity:1;stroke-dasharray:6,6;stroke-dashoffset:0"
         sodipodi:type="arc" />
      <path
         transform="translate(97.111659,431.46974)"
         d="m 251.62473,233.66414 c 0,12.20524 -9.89431,22.09955 -22.09955,22.09955 -12.20525,0 -22.09956,-9.89431 -22.09956,-22.09955 0,-12.20525 9.89431,-22.09955 22.09956,-22.09955 12.20524,0 22.09955,9.8943 22.09955,22.09955 z"
         sodipodi:ry="22.099552"
         sodipodi:rx="22.099552"
         sodipodi:cy="233.66414"
         sodipodi:cx="229.52518"
         id="path4089"
         style="fill:none;stroke:#ffffff;stroke-width:2;stroke-linecap:round;stroke-linejoin:round;stroke-miterlimit:4;stroke-opacity:1;stroke-dasharray:6,6;stroke-dashoffset:0"
         sodipodi:type="arc" />
      <path
         transform="translate(97.111659,431.46974)"
         d="m 269.26561,241.41837 c 0,10.49222 -8.50563,18.99786 -18.99786,18.99786 -10.49223,0 -18.99787,-8.50564 -18.99787,-18.99786 0,-10.49223 8.50564,-18.99787 18.99787,-18.99787 10.49223,0 18.99786,8.50564 18.99786,18.99787 z"
         sodipodi:ry="18.997862"
         sodipodi:rx="18.997862"
         sodipodi:cy="241.41837"
         sodipodi:cx="250.26775"
         id="path4091"
         style="fill:none;stroke:#ffffff;stroke-width:2;stroke-linecap:round;stroke-linejoin:round;stroke-miterlimit:4;stroke-opacity:1;stroke-dasharray:6,6;stroke-dashoffset:0"
         sodipodi:type="arc" />
      <path
         transform="translate(97.111659,431.46974)"
         d="m 287.87576,248.00946 c 0,10.92048 -8.8528,19.77329 -19.77328,19.77329 -10.92049,0 -19.77329,-8.85281 -19.77329,-19.77329 0,-10.92048 8.8528,-19.77328 19.77329,-19.77328 10.92048,0 19.77328,8.8528 19.77328,19.77328 z"
         sodipodi:ry="19.773285"
         sodipodi:rx="19.773285"
         sodipodi:cy="248.00946"
         sodipodi:cx="268.10248"
         id="path4093"
         style="fill:none;stroke:#ffffff;stroke-width:2;stroke-linecap:round;stroke-linejoin:round;stroke-miterlimit:4;stroke-opacity:1;stroke-dasharray:6,6;stroke-dashoffset:0"
         sodipodi:type="arc" />
      <path
         transform="translate(97.111659,431.46974)"
         d="m 310.55688,254.7944 c 0,13.27589 -10.76223,24.03811 -24.03811,24.03811 -13.27588,0 -24.03811,-10.76222 -24.03811,-24.03811 0,-13.27588 10.76223,-24.03811 24.03811,-24.03811 13.27588,0 24.03811,10.76223 24.03811,24.03811 z"
         sodipodi:ry="24.038111"
         sodipodi:rx="24.038111"
         sodipodi:cy="254.7944"
         sodipodi:cx="286.51877"
         id="path4095"
         style="fill:none;stroke:#ffffff;stroke-width:2;stroke-linecap:round;stroke-linejoin:round;stroke-miterlimit:4;stroke-opacity:1;stroke-dasharray:6,6;stroke-dashoffset:0"
         sodipodi:type="arc" />
      <path
         transform="translate(97.111659,431.46974)"
         d="m 331.88099,262.93634 c 0,12.6335 -10.24148,22.87498 -22.87498,22.87498 -12.6335,0 -22.87497,-10.24148 -22.87497,-22.87498 0,-12.6335 10.24147,-22.87497 22.87497,-22.87497 12.6335,0 22.87498,10.24147 22.87498,22.87497 z"
         sodipodi:ry="22.874975"
         sodipodi:rx="22.874975"
         sodipodi:cy="262.93634"
         sodipodi:cx="309.00601"
         id="path4097"
         style="fill:none;stroke:#ffffff;stroke-width:2;stroke-linecap:round;stroke-linejoin:round;stroke-miterlimit:4;stroke-opacity:1;stroke-dasharray:6,6;stroke-dashoffset:0"
         sodipodi:type="arc" />
      <path
         transform="translate(97.111659,431.46974)"
         d="m 349.9096,271.27216 c 0,10.81342 -8.76601,19.57942 -19.57943,19.57942 -10.81342,0 -19.57943,-8.766 -19.57943,-19.57942 0,-10.81342 8.76601,-19.57943 19.57943,-19.57943 10.81342,0 19.57943,8.76601 19.57943,19.57943 z"
         sodipodi:ry="19.579428"
         sodipodi:rx="19.579428"
         sodipodi:cy="271.27216"
         sodipodi:cx="330.33017"
         id="path4099"
         style="fill:none;stroke:#ffffff;stroke-width:2;stroke-linecap:round;stroke-linejoin:round;stroke-miterlimit:4;stroke-opacity:1;stroke-dasharray:6,6;stroke-dashoffset:0"
         sodipodi:type="arc" />
      <path
         transform="translate(97.111659,431.46974)"
         d="m 370.4583,277.86325 c 0,11.99112 -9.72072,21.71184 -21.71184,21.71184 -11.99112,0 -21.71184,-9.72072 -21.71184,-21.71184 0,-11.99112 9.72072,-21.71184 21.71184,-21.71184 11.99112,0 21.71184,9.72072 21.71184,21.71184 z"
         sodipodi:ry="21.711842"
         sodipodi:rx="21.711842"
         sodipodi:cy="277.86325"
         sodipodi:cx="348.74646"
         id="path4101"
         style="fill:none;stroke:#ffffff;stroke-width:2;stroke-linecap:round;stroke-linejoin:round;stroke-miterlimit:4;stroke-opacity:1;stroke-dasharray:6,6;stroke-dashoffset:0"
         sodipodi:type="arc" />
      <path
         transform="translate(97.111659,431.46974)"
         d="m 395.65954,285.61746 c 0,14.88184 -12.06411,26.94595 -26.94595,26.94595 -14.88183,0 -26.94594,-12.06411 -26.94594,-26.94595 0,-14.88183 12.06411,-26.94594 26.94594,-26.94594 14.88184,0 26.94595,12.06411 26.94595,26.94594 z"
         sodipodi:ry="26.945946"
         sodipodi:rx="26.945946"
         sodipodi:cy="285.61746"
         sodipodi:cx="368.71359"
         id="path4103"
         style="fill:none;stroke:#ffffff;stroke-width:2;stroke-linecap:round;stroke-linejoin:round;stroke-miterlimit:4;stroke-opacity:1;stroke-dasharray:6,6;stroke-dashoffset:0"
         sodipodi:type="arc" />
      <path
         transform="translate(97.111659,431.46974)"
         d="m 432.68597,295.11639 c 0,21.41272 -17.35843,38.77115 -38.77114,38.77115 -21.41272,0 -38.77115,-17.35843 -38.77115,-38.77115 0,-21.41271 17.35843,-38.77114 38.77115,-38.77114 21.41271,0 38.77114,17.35843 38.77114,38.77114 z"
         sodipodi:ry="38.771145"
         sodipodi:rx="38.771145"
         sodipodi:cy="295.11639"
         sodipodi:cx="393.91483"
         id="path4105"
         style="fill:none;stroke:#ffffff;stroke-width:2;stroke-linecap:round;stroke-linejoin:round;stroke-miterlimit:4;stroke-opacity:1;stroke-dasharray:6,6;stroke-dashoffset:0"
         sodipodi:type="arc" />
      <path
         transform="translate(97.111659,431.46974)"
         d="m 454.59168,308.29858 c 0,13.49001 -10.93581,24.42583 -24.42582,24.42583 -13.49001,0 -24.42582,-10.93582 -24.42582,-24.42583 0,-13.49 10.93581,-24.42582 24.42582,-24.42582 13.49001,0 24.42582,10.93582 24.42582,24.42582 z"
         sodipodi:ry="24.425821"
         sodipodi:rx="24.425821"
         sodipodi:cy="308.29858"
         sodipodi:cx="430.16586"
         id="path4107"
         style="fill:none;stroke:#ffffff;stroke-width:2;stroke-linecap:round;stroke-linejoin:round;stroke-miterlimit:4;stroke-opacity:1;stroke-dasharray:6,6;stroke-dashoffset:0"
         sodipodi:type="arc" />
    </g>
    <path
       style="fill:none;stroke:#007900;stroke-width:7.08661413;stroke-linecap:round;stroke-linejoin:miter;stroke-miterlimit:4;stroke-opacity:1;stroke-dasharray:none"
       d="m 204.50458,719.99501 67.31121,-169.5288"
       id="path3757"
       inkscape:connector-curvature="0"
       sodipodi:nodetypes="cc"
       inkscape:transform-center-x="5.1186903"
       inkscape:transform-center-y="4.9907724" />
    <path
       sodipodi:type="arc"
       style="fill:#f5ff00;fill-opacity:1;stroke:none"
       id="path4140"
       sodipodi:cx="152.69148"
       sodipodi:cy="236.44365"
       sodipodi:rx="1.7716535"
       sodipodi:ry="1.7716535"
       d="m 154.46314,236.44365 c 0,0.97846 -0.7932,1.77165 -1.77166,1.77165 -0.97845,0 -1.77165,-0.79319 -1.77165,-1.77165 0,-0.97846 0.7932,-1.77165 1.77165,-1.77165 0.97846,0 1.77166,0.79319 1.77166,1.77165 z"
       transform="matrix(2.0521932,0,0,2.0521932,-18.142634,168.18946)" />
    <path
       sodipodi:type="arc"
       style="fill:#f5ff00;fill-opacity:1;stroke:none"
       id="path4140-7"
       sodipodi:cx="152.69148"
       sodipodi:cy="236.44365"
       sodipodi:rx="1.7716535"
       sodipodi:ry="1.7716535"
       d="m 154.46314,236.44365 c 0,0.97846 -0.7932,1.77165 -1.77166,1.77165 -0.97845,0 -1.77165,-0.79319 -1.77165,-1.77165 0,-0.97846 0.7932,-1.77165 1.77165,-1.77165 0.97846,0 1.77166,0.79319 1.77166,1.77165 z"
       transform="matrix(2.0521932,0,0,2.0521932,12.540246,179.35439)" />
    <path
       sodipodi:type="arc"
       style="fill:#f5ff00;fill-opacity:1;stroke:none"
       id="path4140-6"
       sodipodi:cx="152.69148"
       sodipodi:cy="236.44365"
       sodipodi:rx="1.7716535"
       sodipodi:ry="1.7716535"
       d="m 154.46314,236.44365 c 0,0.97846 -0.7932,1.77165 -1.77166,1.77165 -0.97845,0 -1.77165,-0.79319 -1.77165,-1.77165 0,-0.97846 0.7932,-1.77165 1.77165,-1.77165 0.97846,0 1.77166,0.79319 1.77166,1.77165 z"
       transform="matrix(2.0521932,0,0,2.0521932,33.375904,187.16777)" />
    <path
       sodipodi:type="arc"
       style="fill:#f5ff00;fill-opacity:1;stroke:none"
       id="path4140-5"
       sodipodi:cx="152.69148"
       sodipodi:cy="236.44365"
       sodipodi:rx="1.7716535"
       sodipodi:ry="1.7716535"
       d="m 154.46314,236.44365 c 0,0.97846 -0.7932,1.77165 -1.77166,1.77165 -0.97845,0 -1.77165,-0.79319 -1.77165,-1.77165 0,-0.97846 0.7932,-1.77165 1.77165,-1.77165 0.97846,0 1.77166,0.79319 1.77166,1.77165 z"
       transform="matrix(2.0521932,0,0,2.0521932,51.881258,194.70698)" />
    <path
       sodipodi:type="arc"
       style="fill:#f5ff00;fill-opacity:1;stroke:none"
       id="path4140-8"
       sodipodi:cx="152.69148"
       sodipodi:cy="236.44365"
       sodipodi:rx="1.7716535"
       sodipodi:ry="1.7716535"
       d="m 154.46314,236.44365 c 0,0.97846 -0.7932,1.77165 -1.77166,1.77165 -0.97845,0 -1.77165,-0.79319 -1.77165,-1.77165 0,-0.97846 0.7932,-1.77165 1.77165,-1.77165 0.97846,0 1.77166,0.79319 1.77166,1.77165 z"
       transform="matrix(2.0521932,0,0,2.0521932,70.797842,201.6979)" />
    <path
       sodipodi:type="arc"
       style="fill:#f5ff00;fill-opacity:1;stroke:none"
       id="path4140-2"
       sodipodi:cx="152.69148"
       sodipodi:cy="236.44365"
       sodipodi:rx="1.7716535"
       sodipodi:ry="1.7716535"
       d="m 154.46314,236.44365 c 0,0.97846 -0.7932,1.77165 -1.77166,1.77165 -0.97845,0 -1.77165,-0.79319 -1.77165,-1.77165 0,-0.97846 0.7932,-1.77165 1.77165,-1.77165 0.97846,0 1.77166,0.79319 1.77166,1.77165 z"
       transform="matrix(2.0521932,0,0,2.0521932,92.593037,209.10004)" />
    <path
       sodipodi:type="arc"
       style="fill:#f5ff00;fill-opacity:1;stroke:none"
       id="path4140-52"
       sodipodi:cx="152.69148"
       sodipodi:cy="236.44365"
       sodipodi:rx="1.7716535"
       sodipodi:ry="1.7716535"
       d="m 154.46314,236.44365 c 0,0.97846 -0.7932,1.77165 -1.77166,1.77165 -0.97845,0 -1.77165,-0.79319 -1.77165,-1.77165 0,-0.97846 0.7932,-1.77165 1.77165,-1.77165 0.97846,0 1.77166,0.79319 1.77166,1.77165 z"
       transform="matrix(2.0521932,0,0,2.0521932,113.56577,217.46172)" />
    <path
       sodipodi:type="arc"
       style="fill:#f5ff00;fill-opacity:1;stroke:none"
       id="path4140-82"
       sodipodi:cx="152.69148"
       sodipodi:cy="236.44365"
       sodipodi:rx="1.7716535"
       sodipodi:ry="1.7716535"
       d="m 154.46314,236.44365 c 0,0.97846 -0.7932,1.77165 -1.77166,1.77165 -0.97845,0 -1.77165,-0.79319 -1.77165,-1.77165 0,-0.97846 0.7932,-1.77165 1.77165,-1.77165 0.97846,0 1.77166,0.79319 1.77166,1.77165 z"
       transform="matrix(2.0521932,0,0,2.0521932,132.61943,224.45263)" />
    <path
       sodipodi:type="arc"
       style="fill:#f5ff00;fill-opacity:1;stroke:none"
       id="path4140-9"
       sodipodi:cx="152.69148"
       sodipodi:cy="236.44365"
       sodipodi:rx="1.7716535"
       sodipodi:ry="1.7716535"
       d="m 154.46314,236.44365 c 0,0.97846 -0.7932,1.77165 -1.77166,1.77165 -0.97845,0 -1.77165,-0.79319 -1.77165,-1.77165 0,-0.97846 0.7932,-1.77165 1.77165,-1.77165 0.97846,0 1.77166,0.79319 1.77166,1.77165 z"
       transform="matrix(2.0521932,0,0,2.0521932,152.35848,231.99184)" />
    <path
       sodipodi:type="arc"
       style="fill:#f5ff00;fill-opacity:1;stroke:none"
       id="path4140-22"
       sodipodi:cx="152.69148"
       sodipodi:cy="236.44365"
       sodipodi:rx="1.7716535"
       sodipodi:ry="1.7716535"
       d="m 154.46314,236.44365 c 0,0.97846 -0.7932,1.77165 -1.77166,1.77165 -0.97845,0 -1.77165,-0.79319 -1.77165,-1.77165 0,-0.97846 0.7932,-1.77165 1.77165,-1.77165 0.97846,0 1.77166,0.79319 1.77166,1.77165 z"
       transform="matrix(2.0521932,0,0,2.0521932,177.71767,241.72429)" />
    <path
       sodipodi:type="arc"
       style="fill:#f5ff00;fill-opacity:1;stroke:none"
       id="path4140-1"
       sodipodi:cx="152.69148"
       sodipodi:cy="236.44365"
       sodipodi:rx="1.7716535"
       sodipodi:ry="1.7716535"
       d="m 154.46314,236.44365 c 0,0.97846 -0.7932,1.77165 -1.77166,1.77165 -0.97845,0 -1.77165,-0.79319 -1.77165,-1.77165 0,-0.97846 0.7932,-1.77165 1.77165,-1.77165 0.97846,0 1.77166,0.79319 1.77166,1.77165 z"
       transform="matrix(2.0521932,0,0,2.0521932,214.043,255.02073)" />
    <path
       sodipodi:type="arc"
       style="fill:#f5ff00;fill-opacity:1;stroke:none"
       id="path4140-53"
       sodipodi:cx="152.69148"
       sodipodi:cy="236.44365"
       sodipodi:rx="1.7716535"
       sodipodi:ry="1.7716535"
       d="m 154.46314,236.44365 a 1.7716535,1.7716535 0 1 1 -3.54331,0 1.7716535,1.7716535 0 1 1 3.54331,0 z"
       transform="matrix(2.0521932,0,0,2.0521932,-154.55969,116.18508)" />
  </g>
</svg>
