<?xml version="1.0" encoding="UTF-8" standalone="no"?>
<!-- Created with Inkscape (http://www.inkscape.org/) -->

<svg
   xmlns:dc="http://purl.org/dc/elements/1.1/"
   xmlns:cc="http://creativecommons.org/ns#"
   xmlns:rdf="http://www.w3.org/1999/02/22-rdf-syntax-ns#"
   xmlns:svg="http://www.w3.org/2000/svg"
   xmlns="http://www.w3.org/2000/svg"
   xmlns:sodipodi="http://sodipodi.sourceforge.net/DTD/sodipodi-0.dtd"
   xmlns:inkscape="http://www.inkscape.org/namespaces/inkscape"
   version="1.1"
   width="290.05524"
   height="182.00487"
   id="svg4020"
   inkscape:version="0.48.5 r10040"
   sodipodi:docname="visitenkarte_front_ohnehg.plain.svg">
  <sodipodi:namedview
     pagecolor="#ffffff"
     bordercolor="#666666"
     borderopacity="1"
     objecttolerance="10"
     gridtolerance="10"
     guidetolerance="10"
     inkscape:pageopacity="0"
     inkscape:pageshadow="2"
     inkscape:window-width="1920"
     inkscape:window-height="1176"
     id="namedview4996"
     showgrid="false"
     fit-margin-top="5"
     fit-margin-left="5"
     fit-margin-right="5"
     fit-margin-bottom="5"
     inkscape:zoom="4.6238088"
     inkscape:cx="101.98951"
     inkscape:cy="91.002441"
     inkscape:window-x="1366"
     inkscape:window-y="0"
     inkscape:window-maximized="1"
     inkscape:current-layer="svg4020" />
  <defs
     id="defs4022">
    <clipPath
       id="clipPath3020">
      <path
         d="m 21,30.001 257.953,0 0,170.078 -257.953,0 0,-170.078 z"
         id="path3022"
         inkscape:connector-curvature="0" />
    </clipPath>
  </defs>
  <metadata
     id="metadata4025">
    <rdf:RDF>
      <cc:Work
         rdf:about="">
        <dc:format>image/svg+xml</dc:format>
        <dc:type
           rdf:resource="http://purl.org/dc/dcmitype/StillImage" />
        <dc:title />
      </cc:Work>
    </rdf:RDF>
  </metadata>
  <g
     transform="translate(-226.40095,-367.07403)"
     id="layer1">
    <g
       transform="matrix(1.25,0,0,-1.25,183.8962,601.56478)"
       id="g3016">
      <g
         clip-path="url(#clipPath3020)"
         id="g3018">
        <g
           transform="translate(162.459,127.5322)"
           id="g3024">
          <path
             d="m 0,0 c -10.486,0 -17.04,7.787 -17.04,17.811 l 10.023,0 c 0,-5.166 2.93,-8.019 7.094,-8.019 4.626,0 7.556,2.467 7.556,6.091 0,3.007 -1.619,4.318 -3.779,5.552 -4.163,2.39 -6.553,3.315 -11.102,5.705 -4.857,2.545 -8.558,6.863 -8.558,13.879 0,8.712 6.63,14.958 16.115,14.958 9.869,0 16.653,-7.094 16.653,-16.963 l -10.023,0 c 0,4.626 -2.853,7.171 -6.63,7.171 -3.393,0 -6.092,-2.16 -6.092,-5.244 0,-2.235 0.926,-3.777 3.084,-4.857 4.318,-2.236 9.021,-4.395 11.411,-5.706 5.86,-3.161 8.944,-7.787 8.944,-14.495 C 17.656,6.708 9.792,0 0,0"
             id="path3026"
             style="fill:#ffffff;fill-opacity:1;fill-rule:nonzero;stroke:none"
             inkscape:connector-curvature="0" />
        </g>
        <g
           transform="translate(127.347,148.8468)"
           id="g3028">
          <path
             d="m 0,0 c -2.665,-3.087 -4.98,-5.893 -7.295,-8.628 1.894,-3.016 3.928,-4.279 6.454,-4.279 4.769,0 6.102,3.577 6.102,6.524 C 5.261,-3.788 3.999,-0.562 0,0 m -23.218,-0.912 c -3.577,0 -4.278,-2.595 -4.278,-4.981 0,-2.384 0.701,-4.98 4.278,-4.98 1.965,0 2.876,0.982 4.139,2.455 2.174,2.596 17.396,20.693 19.781,23.429 L 7.997,9.188 6.383,7.505 c 5.682,-2.806 7.927,-8.628 7.927,-13.888 0,-7.295 -3.998,-15.713 -15.221,-15.713 -5.191,0 -9.4,2.525 -12.416,6.664 -3.086,-3.437 -6.102,-4.63 -10.031,-4.63 -9.75,0 -13.187,8.137 -13.187,14.169 0,6.033 3.577,14.17 13.327,14.17 l 0,-9.189 z"
             id="path3030"
             style="fill:#231f20;fill-opacity:1;fill-rule:nonzero;stroke:none"
             inkscape:connector-curvature="0" />
        </g>
        <g
           transform="translate(232.779,174.2701)"
           id="g3032">
          <path
             d="m 0,0 c 0,5.483 4.073,8.91 9.313,8.91 l 0,-5.241 c -2.7,0 -4.193,-1.532 -4.193,-3.709 0,-2.419 1.29,-3.951 3.185,-3.951 1.572,0 2.258,0.847 2.903,1.975 1.249,2.178 1.734,3.427 2.983,5.806 1.331,2.54 3.589,4.475 7.257,4.475 4.555,0 7.821,-3.468 7.821,-8.426 0,-5.16 -3.709,-8.708 -8.869,-8.708 l 0,5.241 c 2.419,0 3.749,1.492 3.749,3.467 0,1.774 -1.129,3.185 -2.741,3.185 -1.169,0 -1.976,-0.484 -2.541,-1.613 C 17.699,-0.846 16.57,-3.306 15.884,-4.555 14.232,-7.619 11.813,-9.231 8.305,-9.231 3.508,-9.231 0,-5.12 0,0"
             id="path3034"
             style="fill:#ffffff;fill-opacity:1;fill-rule:nonzero;stroke:none"
             inkscape:connector-curvature="0" />
        </g>
        <g
           transform="translate(256.646,151.7379)"
           id="g3036">
          <path
             d="m 0,0 -23.503,0 0,5.241 23.503,0 0,6.41 5.2,0 0,-18.061 -5.2,0 L 0,0 z"
             id="path3038"
             style="fill:#ffffff;fill-opacity:1;fill-rule:nonzero;stroke:none"
             inkscape:connector-curvature="0" />
        </g>
        <g
           transform="translate(232.779,134.2042)"
           id="g3040">
          <path
             d="m 0,0 c 0,6.975 5.443,8.668 8.346,8.668 l 20.721,0 0,-5.241 -20.721,0 C 5.645,3.427 5.16,1.129 5.16,0 c 0,-1.088 0.485,-3.386 3.186,-3.386 l 20.721,0 0,-5.241 -20.762,0 C 5.403,-8.627 0,-6.934 0,0"
             id="path3042"
             style="fill:#ffffff;fill-opacity:1;fill-rule:nonzero;stroke:none"
             inkscape:connector-curvature="0" />
        </g>
        <g
           transform="translate(232.779,112.7193)"
           id="g3044">
          <path
             d="m 0,0 c 0,6.773 5.605,8.628 8.346,8.628 l 12.779,0 c 2.66,0 8.144,-1.693 8.144,-8.668 0,-6.611 -6.007,-8.627 -8.95,-8.627 l 0,5.241 c 3.305,0 3.79,2.338 3.79,3.386 0,1.129 -0.404,3.427 -3.065,3.427 l -12.698,0 C 5.645,3.387 5.16,1.089 5.16,-0.04 c 0,-1.29 0.606,-3.386 3.912,-3.386 l 0,-5.241 C 5.564,-8.667 0,-6.732 0,0"
             id="path3046"
             style="fill:#231f20;fill-opacity:1;fill-rule:nonzero;stroke:none"
             inkscape:connector-curvature="0" />
        </g>
        <g
           transform="translate(250.438,94.9437)"
           id="g3048">
          <path
             d="m 0,0 11.408,-7.498 0,-6.047 -12.658,8.667 -16.045,-8.829 0,6.008 11.449,6.006 -2.54,1.693 -8.909,0 0,5.241 28.703,0 L 11.408,0 0,0 z"
             id="path3050"
             style="fill:#231f20;fill-opacity:1;fill-rule:nonzero;stroke:none"
             inkscape:connector-curvature="0" />
        </g>
        <path
           d="m 261.846,72.936 -28.703,0 0,5.241 28.703,0 0,-5.241 z"
           id="path3052"
           style="fill:#231f20;fill-opacity:1;fill-rule:nonzero;stroke:none"
           inkscape:connector-curvature="0" />
        <g
           transform="translate(85.271,129.5221)"
           id="g3054">
          <path
             d="m 0,0 c 0,-1.133 -0.842,-1.841 -1.925,-1.841 l 0,1.083 c 0.558,0 0.867,0.316 0.867,0.766 0,0.5 -0.267,0.817 -0.658,0.817 -0.326,0 -0.467,-0.175 -0.6,-0.408 -0.259,-0.451 -0.358,-0.709 -0.617,-1.2 -0.275,-0.525 -0.741,-0.925 -1.5,-0.925 -0.941,0 -1.616,0.716 -1.616,1.741 0,1.067 0.767,1.799 1.833,1.799 l 0,-1.083 c -0.5,0 -0.775,-0.308 -0.775,-0.716 0,-0.366 0.234,-0.658 0.567,-0.658 0.241,0 0.408,0.1 0.525,0.333 0.241,0.467 0.475,0.975 0.616,1.233 0.342,0.633 0.842,0.967 1.567,0.967 C -0.725,1.908 0,1.058 0,0"
             id="path3056"
             style="fill:#231f20;fill-opacity:1;fill-rule:nonzero;stroke:none"
             inkscape:connector-curvature="0" />
        </g>
        <g
           transform="translate(80.3389,134.1797)"
           id="g3058">
          <path
             d="m 0,0 4.857,0 0,-1.083 -4.857,0 0,-1.325 -1.075,0 0,3.733 L 0,1.325 0,0 z"
             id="path3060"
             style="fill:#231f20;fill-opacity:1;fill-rule:nonzero;stroke:none"
             inkscape:connector-curvature="0" />
        </g>
        <g
           transform="translate(85.271,137.8037)"
           id="g3062">
          <path
             d="m 0,0 c 0,-1.441 -1.125,-1.792 -1.725,-1.792 l -4.282,0 0,1.084 4.282,0 c 0.558,0 0.659,0.475 0.659,0.708 0,0.225 -0.101,0.7 -0.659,0.7 l -4.282,0 0,1.083 4.291,0 C -1.117,1.783 0,1.433 0,0"
             id="path3064"
             style="fill:#231f20;fill-opacity:1;fill-rule:nonzero;stroke:none"
             inkscape:connector-curvature="0" />
        </g>
        <g
           transform="translate(85.271,142.2451)"
           id="g3066">
          <path
             d="m 0,0 c 0,-1.4 -1.158,-1.783 -1.725,-1.783 l -2.641,0 c -0.55,0 -1.683,0.35 -1.683,1.791 0,1.367 1.242,1.783 1.85,1.783 l 0,-1.083 c -0.683,0 -0.783,-0.483 -0.783,-0.7 0,-0.233 0.083,-0.708 0.633,-0.708 l 2.624,0 c 0.558,0 0.659,0.475 0.659,0.708 0,0.267 -0.125,0.7 -0.809,0.7 l 0,1.083 C -1.15,1.791 0,1.391 0,0"
             id="path3068"
             style="fill:#231f20;fill-opacity:1;fill-rule:nonzero;stroke:none"
             inkscape:connector-curvature="0" />
        </g>
        <g
           transform="translate(81.6216,145.9195)"
           id="g3070">
          <path
             d="m 0,0 -2.358,1.55 0,1.249 2.616,-1.791 3.316,1.825 0,-1.242 L 1.208,0.35 1.733,0 l 1.841,0 0,-1.083 -5.932,0 0,1.083 L 0,0 z"
             id="path3072"
             style="fill:#231f20;fill-opacity:1;fill-rule:nonzero;stroke:none"
             inkscape:connector-curvature="0" />
        </g>
        <path
           d="m 79.264,150.469 5.932,0 0,-1.083 -5.932,0 0,1.083 z"
           id="path3074"
           style="fill:#231f20;fill-opacity:1;fill-rule:nonzero;stroke:none"
           inkscape:connector-curvature="0" />
        <g
           transform="translate(83.563,156.1344)"
           id="g3076">
          <path
             d="m 0,0 c -0.317,-0.367 -0.592,-0.7 -0.867,-1.025 0.225,-0.358 0.467,-0.508 0.767,-0.508 0.566,0 0.724,0.425 0.724,0.775 C 0.624,-0.45 0.475,-0.067 0,0 m -2.758,-0.108 c -0.425,0 -0.508,-0.309 -0.508,-0.592 0,-0.283 0.083,-0.592 0.508,-0.592 0.234,0 0.342,0.117 0.492,0.292 0.258,0.309 2.066,2.458 2.349,2.783 L 0.95,1.091 0.758,0.892 C 1.433,0.558 1.7,-0.133 1.7,-0.758 c 0,-0.867 -0.475,-1.867 -1.808,-1.867 -0.617,0 -1.117,0.301 -1.475,0.792 -0.367,-0.408 -0.725,-0.55 -1.191,-0.55 -1.159,0 -1.567,0.966 -1.567,1.683 0,0.717 0.425,1.683 1.583,1.683 l 0,-1.091 z"
             id="path3078"
             style="fill:#231f20;fill-opacity:1;fill-rule:nonzero;stroke:none"
             inkscape:connector-curvature="0" />
        </g>
        <g
           transform="translate(85.271,162.0172)"
           id="g3080">
          <path
             d="m 0,0 c 0,-1.133 -0.842,-1.841 -1.925,-1.841 l 0,1.083 c 0.558,0 0.867,0.316 0.867,0.766 0,0.5 -0.267,0.817 -0.658,0.817 -0.326,0 -0.467,-0.175 -0.6,-0.408 -0.259,-0.451 -0.358,-0.709 -0.617,-1.2 -0.275,-0.525 -0.741,-0.925 -1.5,-0.925 -0.941,0 -1.616,0.716 -1.616,1.741 0,1.067 0.767,1.799 1.833,1.799 l 0,-1.082 c -0.5,0 -0.775,-0.309 -0.775,-0.717 0,-0.366 0.234,-0.658 0.567,-0.658 0.241,0 0.408,0.1 0.525,0.333 0.241,0.467 0.475,0.975 0.616,1.233 0.342,0.633 0.842,0.967 1.567,0.967 C -0.725,1.908 0,1.058 0,0"
             id="path3082"
             style="fill:#231f20;fill-opacity:1;fill-rule:nonzero;stroke:none"
             inkscape:connector-curvature="0" />
        </g>
        <g
           transform="translate(80.3389,166.6744)"
           id="g3084">
          <path
             d="m 0,0 4.857,0 0,-1.083 -4.857,0 0,-1.325 -1.075,0 0,3.733 L 0,1.325 0,0 z"
             id="path3086"
             style="fill:#231f20;fill-opacity:1;fill-rule:nonzero;stroke:none"
             inkscape:connector-curvature="0" />
        </g>
        <g
           transform="translate(85.271,170.2989)"
           id="g3088">
          <path
             d="m 0,0 c 0,-1.441 -1.125,-1.792 -1.725,-1.792 l -4.282,0 0,1.084 4.282,0 c 0.558,0 0.659,0.475 0.659,0.708 0,0.225 -0.101,0.7 -0.659,0.7 l -4.282,0 0,1.083 4.291,0 C -1.117,1.783 0,1.433 0,0"
             id="path3090"
             style="fill:#231f20;fill-opacity:1;fill-rule:nonzero;stroke:none"
             inkscape:connector-curvature="0" />
        </g>
        <g
           transform="translate(85.271,174.7398)"
           id="g3092">
          <path
             d="m 0,0 c 0,-1.4 -1.158,-1.783 -1.725,-1.783 l -2.641,0 c -0.55,0 -1.683,0.35 -1.683,1.791 0,1.366 1.242,1.783 1.85,1.783 l 0,-1.083 c -0.683,0 -0.783,-0.483 -0.783,-0.7 0,-0.233 0.083,-0.708 0.633,-0.708 l 2.624,0 c 0.558,0 0.659,0.475 0.659,0.708 0,0.267 -0.125,0.7 -0.809,0.7 l 0,1.083 C -1.15,1.791 0,1.391 0,0"
             id="path3094"
             style="fill:#231f20;fill-opacity:1;fill-rule:nonzero;stroke:none"
             inkscape:connector-curvature="0" />
        </g>
        <g
           transform="translate(81.6216,178.4146)"
           id="g3096">
          <path
             d="m 0,0 -2.358,1.55 0,1.249 2.616,-1.791 3.316,1.825 0,-1.242 L 1.208,0.35 1.733,0 l 1.841,0 0,-1.083 -5.932,0 0,1.083 L 0,0 z"
             id="path3098"
             style="fill:#231f20;fill-opacity:1;fill-rule:nonzero;stroke:none"
             inkscape:connector-curvature="0" />
        </g>
        <path
           d="m 79.264,182.963 5.932,0 0,-1.083 -5.932,0 0,1.083 z"
           id="path3100"
           style="fill:#231f20;fill-opacity:1;fill-rule:nonzero;stroke:none"
           inkscape:connector-curvature="0" />
        <g
           transform="translate(217.358,122.6417)"
           id="g3102">
          <path
             d="m 0,0 c -7.566,0 -9.403,5.904 -9.403,9.053 l 0,22.48 5.686,0 0,-22.48 c 0,-2.93 2.492,-3.455 3.717,-3.455 1.181,0 3.674,0.525 3.674,3.455 l 0,22.48 5.686,0 0,-22.524 C 9.36,5.861 7.523,0 0,0"
             id="path3104"
             style="fill:#231f20;fill-opacity:1;fill-rule:nonzero;stroke:none"
             inkscape:connector-curvature="0" />
        </g>
        <g
           transform="translate(196.207,100.6461)"
           id="g3106">
          <path
             d="M 0,0 C -1.019,0.88 -1.944,1.643 -2.848,2.407 -3.843,1.782 -4.26,1.11 -4.26,0.278 c 0,-1.574 1.181,-2.014 2.154,-2.014 0.856,0 1.92,0.417 2.106,1.736 m -0.301,7.661 c 0,1.182 -0.856,1.412 -1.643,1.412 -0.787,0 -1.644,-0.23 -1.644,-1.412 0,-0.647 0.324,-0.949 0.81,-1.365 0.856,-0.717 6.829,-5.74 7.731,-6.528 L 3.032,-2.639 2.477,-2.106 c -0.926,-1.875 -2.847,-2.615 -4.583,-2.615 -2.408,0 -5.186,1.318 -5.186,5.022 0,1.713 0.834,3.101 2.199,4.096 -1.134,1.02 -1.527,2.014 -1.527,3.311 0,3.217 2.684,4.352 4.676,4.352 1.99,0 4.675,-1.18 4.675,-4.399 l -3.032,0 z"
             id="path3108"
             style="fill:#231f20;fill-opacity:1;fill-rule:nonzero;stroke:none"
             inkscape:connector-curvature="0" />
        </g>
        <g
           transform="translate(207.692,177.7686)"
           id="g3110">
          <path
             d="m 0,0 c 0,3.584 2.662,5.824 6.088,5.824 l 0,-3.426 c -1.765,0 -2.741,-1.002 -2.741,-2.424 0,-1.581 0.844,-2.583 2.082,-2.583 1.027,0 1.476,0.553 1.898,1.291 0.816,1.423 1.132,2.24 1.95,3.795 0.869,1.66 2.344,2.925 4.743,2.925 2.977,0 5.112,-2.266 5.112,-5.507 0,-3.374 -2.425,-5.692 -5.798,-5.692 l 0,3.426 c 1.581,0 2.452,0.974 2.452,2.266 0,1.159 -0.739,2.081 -1.792,2.081 -0.765,0 -1.291,-0.316 -1.661,-1.054 -0.764,-1.476 -1.502,-3.083 -1.95,-3.9 C 9.303,-4.98 7.722,-6.035 5.429,-6.035 2.293,-6.035 0,-3.347 0,0"
             id="path3112"
             style="fill:#231f20;fill-opacity:1;fill-rule:nonzero;stroke:none"
             inkscape:connector-curvature="0" />
        </g>
        <g
           transform="translate(223.293,163.041)"
           id="g3114">
          <path
             d="m 0,0 -15.363,0 0,3.426 15.363,0 0,4.19 3.399,0 0,-11.806 L 0,-4.19 0,0 z"
             id="path3116"
             style="fill:#231f20;fill-opacity:1;fill-rule:nonzero;stroke:none"
             inkscape:connector-curvature="0" />
        </g>
        <g
           transform="translate(207.723,112.6305)"
           id="g3118">
          <path
             d="m 0,0 c 0,4.427 3.663,5.64 5.455,5.64 l 8.353,0 c 1.74,0 5.323,-1.107 5.323,-5.666 0,-4.323 -3.926,-5.639 -5.85,-5.639 l 0,3.426 c 2.161,0 2.477,1.527 2.477,2.213 0,0.738 -0.263,2.24 -2.002,2.24 l -8.301,0 c -1.766,0 -2.082,-1.502 -2.082,-2.24 0,-0.844 0.395,-2.213 2.556,-2.213 l 0,-3.426 C 3.636,-5.665 0,-4.4 0,0"
             id="path3120"
             style="fill:#ffffff;fill-opacity:1;fill-rule:nonzero;stroke:none"
             inkscape:connector-curvature="0" />
        </g>
        <g
           transform="translate(219.265,101.0123)"
           id="g3122">
          <path
             d="m 0,0 7.458,-4.902 0,-3.952 -8.275,5.665 -10.488,-5.77 0,3.925 7.484,3.926 -1.66,1.108 -5.824,0 0,3.426 18.763,0 L 7.458,0 0,0 z"
             id="path3124"
             style="fill:#ffffff;fill-opacity:1;fill-rule:nonzero;stroke:none"
             inkscape:connector-curvature="0" />
        </g>
        <path
           d="m 226.723,86.628 -18.763,0 0,3.426 18.763,0 0,-3.426 z"
           id="path3126"
           style="fill:#ffffff;fill-opacity:1;fill-rule:nonzero;stroke:none"
           inkscape:connector-curvature="0" />
        <g
           transform="translate(153.088,50.2707)"
           id="g3128">
          <path
             d="m 0,0 c 0,-2.138 -1.587,-3.474 -3.631,-3.474 l 0,2.044 c 1.053,0 1.635,0.597 1.635,1.446 0,0.942 -0.503,1.54 -1.242,1.54 -0.613,0 -0.88,-0.329 -1.132,-0.769 -0.488,-0.85 -0.676,-1.336 -1.163,-2.264 -0.519,-0.991 -1.4,-1.746 -2.83,-1.746 -1.776,0 -3.05,1.352 -3.05,3.286 0,2.013 1.447,3.395 3.459,3.395 l 0,-2.043 c -0.944,0 -1.463,-0.582 -1.463,-1.352 0,-0.692 0.441,-1.241 1.069,-1.241 0.457,0 0.771,0.188 0.991,0.629 0.456,0.879 0.896,1.838 1.164,2.326 C -5.549,2.971 -4.606,3.6 -3.238,3.6 -1.367,3.6 0,1.997 0,0"
             id="path3130"
             style="fill:#231f20;fill-opacity:1;fill-rule:nonzero;stroke:none"
             inkscape:connector-curvature="0" />
        </g>
        <g
           transform="translate(143.782,59.0576)"
           id="g3132">
          <path
             d="m 0,0 9.164,0 0,-2.043 -9.164,0 0,-2.499 -2.029,0 0,7.042 L 0,2.5 0,0 z"
             id="path3134"
             style="fill:#231f20;fill-opacity:1;fill-rule:nonzero;stroke:none"
             inkscape:connector-curvature="0" />
        </g>
        <g
           transform="translate(153.088,65.8957)"
           id="g3136">
          <path
             d="m 0,0 c 0,-2.72 -2.122,-3.38 -3.254,-3.38 l -8.081,0 0,2.043 8.081,0 c 1.053,0 1.241,0.897 1.241,1.337 0,0.423 -0.188,1.321 -1.241,1.321 l -8.081,0 0,2.043 8.097,0 C -2.107,3.364 0,2.704 0,0"
             id="path3138"
             style="fill:#231f20;fill-opacity:1;fill-rule:nonzero;stroke:none"
             inkscape:connector-curvature="0" />
        </g>
        <g
           transform="translate(153.088,74.2727)"
           id="g3140">
          <path
             d="m 0,0 c 0,-2.64 -2.185,-3.364 -3.254,-3.364 l -4.983,0 c -1.038,0 -3.176,0.661 -3.176,3.381 0,2.578 2.343,3.363 3.49,3.363 l 0,-2.043 c -1.289,0 -1.477,-0.912 -1.477,-1.32 0,-0.44 0.156,-1.337 1.194,-1.337 l 4.952,0 c 1.053,0 1.241,0.897 1.241,1.337 0,0.502 -0.235,1.32 -1.523,1.32 l 0,2.043 C -2.17,3.38 0,2.626 0,0"
             id="path3142"
             style="fill:#231f20;fill-opacity:1;fill-rule:nonzero;stroke:none"
             inkscape:connector-curvature="0" />
        </g>
        <g
           transform="translate(146.203,81.2057)"
           id="g3144">
          <path
             d="m 0,0 -4.45,2.923 0,2.359 4.937,-3.38 6.256,3.443 0,-2.343 L 2.279,0.66 3.27,0 l 3.473,0 0,-2.044 -11.193,0 L -4.45,0 0,0 z"
             id="path3146"
             style="fill:#231f20;fill-opacity:1;fill-rule:nonzero;stroke:none"
             inkscape:connector-curvature="0" />
        </g>
        <path
           d="m 141.753,89.788 11.193,0 0,-2.044 -11.193,0 0,2.044 z"
           id="path3148"
           style="fill:#231f20;fill-opacity:1;fill-rule:nonzero;stroke:none"
           inkscape:connector-curvature="0" />
        <g
           transform="translate(203.132,123.0514)"
           id="g3150">
          <path
             d="m 0,0 c 0,-3.237 -2.404,-5.261 -5.498,-5.261 l 0,3.094 c 1.595,0 2.475,0.905 2.475,2.19 0,1.429 -0.761,2.333 -1.88,2.333 -0.929,0 -1.333,-0.5 -1.714,-1.166 -0.739,-1.286 -1.024,-2.024 -1.762,-3.428 -0.785,-1.499 -2.118,-2.642 -4.284,-2.642 -2.691,0 -4.618,2.047 -4.618,4.975 0,3.047 2.19,5.141 5.237,5.141 l 0,-3.094 c -1.429,0 -2.214,-0.881 -2.214,-2.047 0,-1.047 0.666,-1.881 1.618,-1.881 0.691,0 1.167,0.286 1.5,0.952 0.691,1.333 1.357,2.786 1.762,3.523 0.975,1.809 2.403,2.762 4.475,2.762 C -2.07,5.451 0,3.023 0,0"
             id="path3152"
             style="fill:#231f20;fill-opacity:1;fill-rule:nonzero;stroke:none"
             inkscape:connector-curvature="0" />
        </g>
        <g
           transform="translate(189.04,136.3589)"
           id="g3154">
          <path
             d="m 0,0 13.878,0 0,-3.095 -13.878,0 0,-3.784 -3.07,0 0,10.664 3.07,0 L 0,0 z"
             id="path3156"
             style="fill:#231f20;fill-opacity:1;fill-rule:nonzero;stroke:none"
             inkscape:connector-curvature="0" />
        </g>
        <g
           transform="translate(203.132,146.7149)"
           id="g3158">
          <path
             d="m 0,0 c 0,-4.118 -3.213,-5.118 -4.927,-5.118 l -12.235,0 0,3.095 12.235,0 c 1.595,0 1.88,1.356 1.88,2.023 0,0.643 -0.285,1.999 -1.88,1.999 l -12.235,0 0,3.095 12.259,0 C -3.19,5.094 0,4.094 0,0"
             id="path3160"
             style="fill:#231f20;fill-opacity:1;fill-rule:nonzero;stroke:none"
             inkscape:connector-curvature="0" />
        </g>
        <g
           transform="translate(203.132,159.4044)"
           id="g3162">
          <path
             d="m 0,0 c 0,-3.999 -3.309,-5.094 -4.927,-5.094 l -7.546,0 c -1.571,0 -4.808,1 -4.808,5.118 0,3.904 3.546,5.094 5.284,5.094 l 0,-3.095 c -1.951,0 -2.238,-1.38 -2.238,-1.999 0,-0.667 0.239,-2.024 1.81,-2.024 l 7.498,0 c 1.595,0 1.88,1.357 1.88,2.024 0,0.762 -0.356,1.999 -2.309,1.999 l 0,3.095 C -3.284,5.118 0,3.975 0,0"
             id="path3164"
             style="fill:#231f20;fill-opacity:1;fill-rule:nonzero;stroke:none"
             inkscape:connector-curvature="0" />
        </g>
        <g
           transform="translate(192.706,169.9038)"
           id="g3166">
          <path
             d="m 0,0 -6.736,4.427 0,3.571 7.474,-5.118 9.474,5.213 0,-3.547 L 3.451,1 l 1.5,-1 5.261,0 0,-3.095 -16.948,0 0,3.095 L 0,0 z"
             id="path3168"
             style="fill:#231f20;fill-opacity:1;fill-rule:nonzero;stroke:none"
             inkscape:connector-curvature="0" />
        </g>
        <path
           d="m 185.97,182.902 16.948,0 0,-3.095 -16.948,0 0,3.095 z"
           id="path3170"
           style="fill:#231f20;fill-opacity:1;fill-rule:nonzero;stroke:none"
           inkscape:connector-curvature="0" />
        <g
           transform="translate(92.1401,46.5687)"
           id="g3172">
          <path
             d="m 0,0 c -10.374,0 -12.893,8.096 -12.893,12.414 l 0,30.823 7.796,0 0,-30.823 c 0,-4.018 3.418,-4.738 5.097,-4.738 1.619,0 5.037,0.72 5.037,4.738 l 0,30.823 7.796,0 0,-30.883 C 12.833,8.036 10.314,0 0,0"
             id="path3174"
             style="fill:#231f20;fill-opacity:1;fill-rule:nonzero;stroke:none"
             inkscape:connector-curvature="0" />
        </g>
        <g
           transform="translate(124.105,46.5687)"
           id="g3176">
          <path
             d="m 0,0 c -10.074,0 -12.833,8.336 -12.833,12.414 l 0,19.009 c 0,3.958 2.519,12.114 12.894,12.114 9.834,0 12.833,-8.935 12.833,-13.313 l -7.796,0 c 0,4.917 -3.478,5.638 -5.037,5.638 -1.68,0 -5.098,-0.601 -5.098,-4.559 l 0,-18.889 c 0,-4.018 3.418,-4.738 5.098,-4.738 1.918,0 5.037,0.9 5.037,5.816 l 7.796,0 C 12.894,8.276 10.015,0 0,0"
             id="path3178"
             style="fill:#231f20;fill-opacity:1;fill-rule:nonzero;stroke:none"
             inkscape:connector-curvature="0" />
        </g>
        <g
           transform="translate(86.9395,95.6407)"
           id="g3180">
          <path
             d="m 0,0 c -5.064,0 -8.229,3.76 -8.229,8.6 l 4.841,0 c 0,-2.494 1.414,-3.871 3.425,-3.871 2.234,0 3.648,1.191 3.648,2.941 0,1.452 -0.781,2.084 -1.824,2.68 -2.011,1.154 -3.164,1.602 -5.361,2.756 -2.346,1.229 -4.133,3.313 -4.133,6.702 0,4.207 3.202,7.222 7.781,7.222 4.766,0 8.042,-3.425 8.042,-8.191 l -4.84,0 c 0,2.234 -1.377,3.463 -3.202,3.463 -1.637,0 -2.941,-1.042 -2.941,-2.531 0,-1.081 0.447,-1.825 1.49,-2.347 2.085,-1.08 4.356,-2.121 5.51,-2.755 C 7.037,13.143 8.526,10.909 8.526,7.67 8.526,3.239 4.728,0 0,0"
             id="path3182"
             style="fill:#231f20;fill-opacity:1;fill-rule:nonzero;stroke:none"
             inkscape:connector-curvature="0" />
        </g>
        <g
           transform="translate(107.748,117.6822)"
           id="g3184">
          <path
             d="m 0,0 0,-21.706 -4.84,0 0,21.706 -5.92,0 0,4.803 16.68,0 L 5.92,0 0,0 z"
             id="path3186"
             style="fill:#ffffff;fill-opacity:1;fill-rule:nonzero;stroke:none"
             inkscape:connector-curvature="0" />
        </g>
        <g
           transform="translate(123.94,95.6407)"
           id="g3188">
          <path
             d="m 0,0 c -6.441,0 -8.005,5.026 -8.005,7.708 l 0,19.136 4.841,0 0,-19.136 c 0,-2.495 2.122,-2.942 3.164,-2.942 1.006,0 3.128,0.447 3.128,2.942 l 0,19.136 4.84,0 0,-19.174 C 7.968,4.989 6.404,0 0,0"
             id="path3190"
             style="fill:#ffffff;fill-opacity:1;fill-rule:nonzero;stroke:none"
             inkscape:connector-curvature="0" />
        </g>
        <g
           transform="translate(143.781,95.6407)"
           id="g3192">
          <path
             d="m 0,0 c -6.255,0 -7.968,5.176 -7.968,7.708 l 0,11.802 c 0,2.457 1.564,7.52 8.005,7.52 6.106,0 7.968,-5.547 7.968,-8.265 l -4.84,0 c 0,3.053 -2.16,3.5 -3.128,3.5 -1.042,0 -3.164,-0.372 -3.164,-2.83 l 0,-11.727 c 0,-2.495 2.122,-2.942 3.164,-2.942 1.192,0 3.128,0.559 3.128,3.612 l 4.84,0 C 8.005,5.138 6.218,0 0,0"
             id="path3194"
             style="fill:#231f20;fill-opacity:1;fill-rule:nonzero;stroke:none"
             inkscape:connector-curvature="0" />
        </g>
        <g
           transform="translate(160.197,111.9478)"
           id="g3196">
          <path
             d="m 0,0 6.925,10.537 5.585,0 -8.005,-11.691 8.153,-14.818 -5.547,0 L 1.564,-5.398 0,-7.744 l 0,-8.228 -4.841,0 0,26.509 4.841,0 L 0,0 z"
             id="path3198"
             style="fill:#231f20;fill-opacity:1;fill-rule:nonzero;stroke:none"
             inkscape:connector-curvature="0" />
        </g>
        <path
           d="m 180.521,95.976 -4.839,0 0,26.509 4.839,0 0,-26.509 z"
           id="path3200"
           style="fill:#231f20;fill-opacity:1;fill-rule:nonzero;stroke:none"
           inkscape:connector-curvature="0" />
        <g
           transform="translate(134.961,169.9659)"
           id="g3202">
          <path
             d="m 0,0 0,12.979 2.894,0 0,-12.979 3.541,0 0,-2.872 -9.974,0 0,2.872 L 0,0 z"
             id="path3204"
             style="fill:#231f20;fill-opacity:1;fill-rule:nonzero;stroke:none"
             inkscape:connector-curvature="0" />
        </g>
        <g
           transform="translate(125.279,183.1451)"
           id="g3206">
          <path
             d="m 0,0 c 3.852,0 4.787,-3.005 4.787,-4.608 l 0,-11.443 -2.895,0 0,11.443 c 0,1.491 -1.269,1.758 -1.892,1.758 -0.601,0 -1.87,-0.267 -1.87,-1.758 l 0,-11.443 -2.894,0 0,11.465 C -4.764,-2.983 -3.829,0 0,0"
             id="path3208"
             style="fill:#231f20;fill-opacity:1;fill-rule:nonzero;stroke:none"
             inkscape:connector-curvature="0" />
        </g>
        <g
           transform="translate(113.4155,183.1451)"
           id="g3210">
          <path
             d="m 0,0 c 3.74,0 4.765,-3.094 4.765,-4.608 l 0,-7.058 c 0,-1.469 -0.935,-4.497 -4.787,-4.497 -3.651,0 -4.764,3.318 -4.764,4.943 l 2.894,0 c 0,-1.826 1.291,-2.093 1.87,-2.093 0.623,0 1.892,0.223 1.892,1.692 l 0,7.013 c 0,1.491 -1.269,1.758 -1.892,1.758 -0.712,0 -1.87,-0.334 -1.87,-2.159 l -2.894,0 C -4.786,-3.072 -3.718,0 0,0"
             id="path3212"
             style="fill:#231f20;fill-opacity:1;fill-rule:nonzero;stroke:none"
             inkscape:connector-curvature="0" />
        </g>
        <g
           transform="translate(103.6001,173.3941)"
           id="g3214">
          <path
             d="m 0,0 -4.141,-6.3 -3.339,0 4.787,6.99 -4.876,8.861 3.317,0 3.317,-6.323 0.935,1.403 0,4.92 2.895,0 0,-15.851 L 0,-6.3 0,0 z"
             id="path3216"
             style="fill:#231f20;fill-opacity:1;fill-rule:nonzero;stroke:none"
             inkscape:connector-curvature="0" />
        </g>
        <path
           d="m 91.447,182.945 2.895,0 0,-15.851 -2.895,0 0,15.851 z"
           id="path3218"
           style="fill:#231f20;fill-opacity:1;fill-rule:nonzero;stroke:none"
           inkscape:connector-curvature="0" />
        <g
           transform="translate(74.3608,57.0577)"
           id="g3220">
          <path
             d="m 0,0 c 0,-6.811 -5.058,-11.069 -11.568,-11.069 l 0,6.511 c 3.355,0 5.208,1.903 5.208,4.607 0,3.005 -1.602,4.908 -3.956,4.908 -1.954,0 -2.805,-1.051 -3.606,-2.454 -1.553,-2.705 -2.154,-4.256 -3.706,-7.211 -1.653,-3.156 -4.457,-5.559 -9.014,-5.559 -5.659,0 -9.715,4.308 -9.715,10.467 0,6.41 4.607,10.817 11.017,10.817 l 0,-6.511 c -3.005,0 -4.658,-1.852 -4.658,-4.306 0,-2.204 1.403,-3.956 3.406,-3.956 1.452,0 2.454,0.6 3.155,2.003 1.452,2.803 2.854,5.859 3.706,7.411 2.053,3.806 5.058,5.809 9.415,5.809 C -4.357,11.467 0,6.359 0,0"
             id="path3222"
             style="fill:#ffffff;fill-opacity:1;fill-rule:nonzero;stroke:none"
             inkscape:connector-curvature="0" />
        </g>
        <g
           transform="translate(44.7139,85.0477)"
           id="g3224">
          <path
             d="m 0,0 29.196,0 0,-6.51 -29.196,0 0,-7.963 -6.46,0 0,22.436 6.46,0 L 0,0 z"
             id="path3226"
             style="fill:#ffffff;fill-opacity:1;fill-rule:nonzero;stroke:none"
             inkscape:connector-curvature="0" />
        </g>
        <g
           transform="translate(74.3608,106.8287)"
           id="g3228">
          <path
             d="m 0,0 c 0,-8.664 -6.761,-10.768 -10.366,-10.768 l -25.741,0 0,6.51 25.741,0 c 3.355,0 3.956,2.856 3.956,4.258 0,1.352 -0.601,4.206 -3.956,4.206 l -25.741,0 0,6.51 25.791,0 C -6.71,10.716 0,8.613 0,0"
             id="path3230"
             style="fill:#ffffff;fill-opacity:1;fill-rule:nonzero;stroke:none"
             inkscape:connector-curvature="0" />
        </g>
        <g
           transform="translate(74.3608,133.5167)"
           id="g3232">
          <path
             d="m 0,0 c 0,-8.413 -6.961,-10.717 -10.366,-10.717 l -15.876,0 c -3.305,0 -10.115,2.103 -10.115,10.767 0,8.213 7.461,10.717 11.117,10.717 l 0,-6.51 c -4.107,0 -4.707,-2.905 -4.707,-4.207 0,-1.402 0.5,-4.257 3.805,-4.257 l 15.776,0 c 3.355,0 3.956,2.855 3.956,4.257 0,1.603 -0.751,4.207 -4.858,4.207 l 0,6.51 C -6.911,10.767 0,8.363 0,0"
             id="path3234"
             style="fill:#ffffff;fill-opacity:1;fill-rule:nonzero;stroke:none"
             inkscape:connector-curvature="0" />
        </g>
        <g
           transform="translate(52.4263,155.5981)"
           id="g3236">
          <path
             d="m 0,0 -14.172,9.315 0,7.512 L 1.552,6.06 21.484,17.027 21.484,9.565 7.261,2.103 10.417,0 l 11.067,0 0,-6.511 -35.656,0 0,6.511 L 0,0 z"
             id="path3238"
             style="fill:#ffffff;fill-opacity:1;fill-rule:nonzero;stroke:none"
             inkscape:connector-curvature="0" />
        </g>
        <path
           d="m 38.254,182.937 35.656,0 0,-6.511 -35.656,0 0,6.511 z"
           id="path3240"
           style="fill:#ffffff;fill-opacity:1;fill-rule:nonzero;stroke:none"
           inkscape:connector-curvature="0" />
        <g
           transform="translate(175.951,55.4157)"
           id="g3242">
          <path
             d="m 0,0 -17.804,11.7 0,9.438 19.754,-13.526 25.039,13.777 0,-9.373 L 9.122,2.642 13.086,0 l 13.903,0 0,-8.178 -44.793,0 0,8.178 L 0,0 z"
             id="path3244"
             style="fill:#ffffff;fill-opacity:1;fill-rule:nonzero;stroke:none"
             inkscape:connector-curvature="0" />
        </g>
        <path
           d="m 158.147,89.76 44.793,0 0,-8.179 -44.793,0 0,8.179 z"
           id="path3246"
           style="fill:#ffffff;fill-opacity:1;fill-rule:nonzero;stroke:none"
           inkscape:connector-curvature="0" />
        <g
           transform="translate(217.687,69.1076)"
           id="g3248">
          <path
             d="m 0,0 44.12,0 0,-9.838 -44.12,0 0,-12.032 -9.763,0 0,33.904 9.763,0 L 0,0 z"
             id="path3250"
             style="fill:#231f20;fill-opacity:1;fill-rule:nonzero;stroke:none"
             inkscape:connector-curvature="0" />
        </g>
      </g>
    </g>
  </g>
</svg>
