<?xml version="1.0" encoding="UTF-8" standalone="no"?>
<!-- Created with Inkscape (http://www.inkscape.org/) -->

<svg
   xmlns:dc="http://purl.org/dc/elements/1.1/"
   xmlns:cc="http://creativecommons.org/ns#"
   xmlns:rdf="http://www.w3.org/1999/02/22-rdf-syntax-ns#"
   xmlns:svg="http://www.w3.org/2000/svg"
   xmlns="http://www.w3.org/2000/svg"
   xmlns:sodipodi="http://sodipodi.sourceforge.net/DTD/sodipodi-0.dtd"
   xmlns:inkscape="http://www.inkscape.org/namespaces/inkscape"
   width="102.87003"
   height="8.1674995"
   id="svg3827"
   version="1.1"
   inkscape:version="0.48.5 r10040"
   sodipodi:docname="stst-logo-w.plain.svg">
  <defs
     id="defs3829" />
  <sodipodi:namedview
     id="base"
     pagecolor="#ffcc60"
     bordercolor="#666666"
     borderopacity="1.0"
     inkscape:pageopacity="0"
     inkscape:pageshadow="2"
     inkscape:zoom="7.88866"
     inkscape:cx="68.043096"
     inkscape:cy="-2.2070494"
     inkscape:document-units="px"
     inkscape:current-layer="text3157"
     showgrid="false"
     fit-margin-top="0"
     fit-margin-left="0"
     fit-margin-right="0"
     fit-margin-bottom="0"
     inkscape:window-width="1920"
     inkscape:window-height="1176"
     inkscape:window-x="1366"
     inkscape:window-y="0"
     inkscape:window-maximized="1" />
  <metadata
     id="metadata3832">
    <rdf:RDF>
      <cc:Work
         rdf:about="">
        <dc:format>image/svg+xml</dc:format>
        <dc:type
           rdf:resource="http://purl.org/dc/dcmitype/StillImage" />
        <dc:title></dc:title>
      </cc:Work>
    </rdf:RDF>
  </metadata>
  <g
     inkscape:label="Layer 1"
     inkscape:groupmode="layer"
     id="layer1"
     transform="translate(-323.56499,-528.27842)">
    <g
       style="font-size:15px;fill:#ffffff;fill-opacity:1;fill-rule:nonzero;stroke:none"
       id="text3157">
      <path
         d="m 328.62749,534.12842 c 0,-0.97875 -0.45,-1.65375 -1.305,-2.115 -0.34875,-0.19125 -1.035,-0.50625 -1.665,-0.8325 -0.315,-0.1575 -0.45,-0.3825 -0.45,-0.70875 0,-0.45 0.39375,-0.765 0.88875,-0.765 0.55125,0 0.9675,0.37125 0.9675,1.04625 l 1.4625,0 c 0,-1.44 -0.99,-2.475 -2.43,-2.475 -1.38375,0 -2.35125,0.91125 -2.35125,2.1825 0,1.02374 0.54,1.65375 1.24875,2.025 0.66375,0.34875 1.0125,0.48375 1.62,0.8325 0.315,0.18 0.55125,0.37125 0.55125,0.81 0,0.52874 -0.4275,0.88875 -1.1025,0.88875 -0.6075,0 -1.035,-0.41626 -1.035,-1.17 l -1.4625,0 c 0,1.46249 0.95625,2.59875 2.48625,2.59875 1.42875,0 2.57625,-0.97876 2.57625,-2.3175"
         style="font-size:11.25px;font-variant:normal;font-weight:900;font-stretch:normal;writing-mode:lr-tb;fill:#ffffff;font-family:TSTAR PRO Heavy;-inkscape-font-specification:TSTARPRO-Heavy"
         id="path4640" />
      <path
         d="m 334.01625,529.78592 0,-1.45125 -5.04,0 0,1.45125 1.78875,0 0,6.55875 1.4625,0 0,-6.55875 1.78875,0"
         style="font-size:11.25px;font-variant:normal;font-weight:900;font-stretch:normal;writing-mode:lr-tb;fill:#ffffff;font-family:TSTAR PRO Heavy;-inkscape-font-specification:TSTARPRO-Heavy"
         id="path4642" />
      <path
         d="m 339.41624,534.12842 0,-5.79375 -1.4625,0 0,5.7825 c 0,0.75374 -0.64125,0.88875 -0.945,0.88875 -0.315,0 -0.95625,-0.13501 -0.95625,-0.88875 l 0,-5.7825 -1.4625,0 0,5.7825 c 0,0.80999 0.47251,2.32875 2.41875,2.32875 1.935,0 2.4075,-1.50751 2.4075,-2.3175"
         style="font-size:11.25px;font-variant:normal;font-weight:900;font-stretch:normal;writing-mode:lr-tb;fill:#ffffff;font-family:TSTAR PRO Heavy;-inkscape-font-specification:TSTARPRO-Heavy"
         id="path4644" />
      <path
         d="m 345.42375,533.91467 -1.4625,0 c 0,0.92249 -0.585,1.09125 -0.945,1.09125 -0.315,0 -0.95625,-0.13501 -0.95625,-0.88875 l 0,-3.54375 c 0,-0.7425 0.64125,-0.855 0.95625,-0.855 0.2925,0 0.945,0.135 0.945,1.0575 l 1.4625,0 c 0,-0.82125 -0.5625,-2.4975 -2.4075,-2.4975 -1.94625,0 -2.41875,1.53 -2.41875,2.2725 l 0,3.56625 c 0,0.76499 0.5175,2.32875 2.4075,2.32875 1.87875,0 2.41875,-1.55251 2.41875,-2.53125"
         style="font-size:11.25px;font-variant:normal;font-weight:900;font-stretch:normal;writing-mode:lr-tb;fill:#ffffff;font-family:TSTAR PRO Heavy;-inkscape-font-specification:TSTARPRO-Heavy"
         id="path4646" />
      <path
         d="m 347.96623,528.33467 -1.4625,0 0,8.01 1.4625,0 0,-2.48625 0.4725,-0.70875 1.67625,3.195 1.67625,0 -2.46375,-4.4775 2.41875,-3.5325 -1.6875,0 -2.0925,3.18375 0,-3.18375"
         style="font-size:11.25px;font-variant:normal;font-weight:900;font-stretch:normal;writing-mode:lr-tb;fill:#ffffff;font-family:TSTAR PRO Heavy;-inkscape-font-specification:TSTARPRO-Heavy"
         id="path4648" />
      <path
         d="m 352.64625,528.33467 0,8.01 1.4625,0 0,-8.01 -1.4625,0"
         style="font-size:11.25px;font-variant:normal;font-weight:900;font-stretch:normal;writing-mode:lr-tb;fill:#ffffff;font-family:TSTAR PRO Heavy;-inkscape-font-specification:TSTARPRO-Heavy"
         id="path4650" />
      <path
         d="m 360.73499,534.98342 c -0.4725,0 -1.04625,-0.21376 -1.04625,-0.97875 0,-0.405 0.2025,-0.73125 0.68625,-1.035 0.43875,0.37125 0.88875,0.7425 1.38375,1.17 -0.09,0.64124 -0.6075,0.84375 -1.02375,0.84375 m 2.35125,-4.5675 c 0,-1.56375 -1.305,-2.1375 -2.2725,-2.1375 -0.9675,0 -2.2725,0.55125 -2.2725,2.115 0,0.62999 0.19125,1.11375 0.7425,1.60875 -0.66375,0.48375 -1.06875,1.15875 -1.06875,1.99125 0,1.79999 1.35001,2.44125 2.52,2.44125 0.84375,0 1.7775,-0.36001 2.2275,-1.27125 l 0.27,0.25875 0.93375,-1.17 c -0.43875,-0.3825 -3.34125,-2.82375 -3.7575,-3.1725 -0.23625,-0.2025 -0.39375,-0.34875 -0.39375,-0.66375 0,-0.57375 0.41625,-0.68625 0.79875,-0.68625 0.3825,0 0.79875,0.1125 0.79875,0.68625 l 1.47375,0"
         style="font-size:11.25px;font-variant:normal;font-weight:900;font-stretch:normal;writing-mode:lr-tb;fill:#ffffff;font-family:TSTAR PRO Heavy;-inkscape-font-specification:TSTARPRO-Heavy"
         id="path4652" />
      <path
         d="m 372.27748,534.12842 c 0,-0.97875 -0.45,-1.65375 -1.305,-2.115 -0.34875,-0.19125 -1.035,-0.50625 -1.665,-0.8325 -0.315,-0.1575 -0.45,-0.3825 -0.45,-0.70875 0,-0.45 0.39375,-0.765 0.88875,-0.765 0.55125,0 0.9675,0.37125 0.9675,1.04625 l 1.4625,0 c 0,-1.44 -0.99,-2.475 -2.43,-2.475 -1.38375,0 -2.35125,0.91125 -2.35125,2.1825 0,1.02374 0.54,1.65375 1.24875,2.025 0.66375,0.34875 1.0125,0.48375 1.62,0.8325 0.315,0.18 0.55125,0.37125 0.55125,0.81 0,0.52874 -0.4275,0.88875 -1.1025,0.88875 -0.6075,0 -1.035,-0.41626 -1.035,-1.17 l -1.4625,0 c 0,1.46249 0.95625,2.59875 2.48625,2.59875 1.42875,0 2.57625,-0.97876 2.57625,-2.3175"
         style="font-size:11.25px;font-variant:normal;font-weight:900;font-stretch:normal;writing-mode:lr-tb;fill:#ffffff;font-family:TSTAR PRO Heavy;-inkscape-font-specification:TSTARPRO-Heavy"
         id="path4654" />
      <path
         d="m 377.66624,529.78592 0,-1.45125 -5.04,0 0,1.45125 1.78875,0 0,6.55875 1.4625,0 0,-6.55875 1.78875,0"
         style="font-size:11.25px;font-variant:normal;font-weight:900;font-stretch:normal;writing-mode:lr-tb;fill:#ffffff;font-family:TSTAR PRO Heavy;-inkscape-font-specification:TSTARPRO-Heavy"
         id="path4656" />
      <path
         d="m 383.06624,534.12842 0,-5.79375 -1.4625,0 0,5.7825 c 0,0.75374 -0.64125,0.88875 -0.945,0.88875 -0.315,0 -0.95625,-0.13501 -0.95625,-0.88875 l 0,-5.7825 -1.4625,0 0,5.7825 c 0,0.80999 0.4725,2.32875 2.41875,2.32875 1.935,0 2.4075,-1.50751 2.4075,-2.3175"
         style="font-size:11.25px;font-variant:normal;font-weight:900;font-stretch:normal;writing-mode:lr-tb;fill:#ffffff;font-family:TSTAR PRO Heavy;-inkscape-font-specification:TSTARPRO-Heavy"
         id="path4658" />
      <path
         d="m 389.07375,533.91467 -1.4625,0 c 0,0.92249 -0.58501,1.09125 -0.945,1.09125 -0.315,0 -0.95625,-0.13501 -0.95625,-0.88875 l 0,-3.54375 c 0,-0.7425 0.64125,-0.855 0.95625,-0.855 0.29249,0 0.945,0.135 0.945,1.0575 l 1.4625,0 c 0,-0.82125 -0.56251,-2.4975 -2.4075,-2.4975 -1.94625,0 -2.41875,1.53 -2.41875,2.2725 l 0,3.56625 c 0,0.76499 0.5175,2.32875 2.4075,2.32875 1.87874,0 2.41875,-1.55251 2.41875,-2.53125"
         style="font-size:11.25px;font-variant:normal;font-weight:900;font-stretch:normal;writing-mode:lr-tb;fill:#ffffff;font-family:TSTAR PRO Heavy;-inkscape-font-specification:TSTARPRO-Heavy"
         id="path4660" />
      <path
         d="m 391.61626,528.33467 -1.4625,0 0,8.01 1.4625,0 0,-2.48625 0.4725,-0.70875 1.67625,3.195 1.67625,0 -2.46375,-4.4775 2.41875,-3.5325 -1.6875,0 -2.0925,3.18375 0,-3.18375"
         style="font-size:11.25px;font-variant:normal;font-weight:900;font-stretch:normal;writing-mode:lr-tb;fill:#ffffff;font-family:TSTAR PRO Heavy;-inkscape-font-specification:TSTARPRO-Heavy"
         id="path4662" />
      <path
         d="m 396.29624,528.33467 0,8.01 1.4625,0 0,-8.01 -1.4625,0"
         style="font-size:11.25px;font-variant:normal;font-weight:900;font-stretch:normal;writing-mode:lr-tb;fill:#ffffff;font-family:TSTAR PRO Heavy;-inkscape-font-specification:TSTARPRO-Heavy"
         id="path4664" />
      <path
         d="m 406.69124,534.12842 0,-2.48625 -2.64375,0 0,1.42875 1.18125,0 0,1.06875 c 0,0.75374 -0.6525,0.855 -0.945,0.855 -0.315,0 -0.95625,-0.10126 -0.95625,-0.855 l 0,-3.5775 c 0,-0.73125 0.64125,-0.8325 0.95625,-0.8325 0.2925,0 0.945,0.135 0.945,1.035 l 1.4625,0 c 0,-0.88875 -0.55125,-2.48625 -2.4075,-2.48625 -1.935,0 -2.41875,1.51875 -2.41875,2.26125 l 0,3.5775 c 0,0.77624 0.5175,2.32875 2.39625,2.32875 1.89,0 2.43,-1.55251 2.43,-2.3175"
         style="font-size:11.25px;font-variant:normal;font-weight:900;font-stretch:normal;writing-mode:lr-tb;fill:#ffffff;font-family:TSTAR PRO Heavy;-inkscape-font-specification:TSTARPRO-Heavy"
         id="path4666" />
      <path
         d="m 409.425,536.34467 0,-4.995 1.09125,2.73375 0.9225,0 1.08,-2.7225 0,4.98375 1.45125,0 0,-8.01 -1.54125,0 -1.4625,3.61125 -1.485,-3.61125 -1.5075,0 0,8.01 1.45125,0"
         style="font-size:11.25px;font-variant:normal;font-weight:900;font-stretch:normal;writing-mode:lr-tb;fill:#ffffff;font-family:TSTAR PRO Heavy;-inkscape-font-specification:TSTARPRO-Heavy"
         id="path4668" />
      <path
         d="m 420.25876,534.07217 0,-0.25875 c 0,-0.6075 -0.37125,-1.24875 -0.93375,-1.60875 0.52875,-0.34875 0.81,-1.02375 0.81,-1.49625 l 0,-0.135 c 0,-0.7425 -0.32625,-2.23875 -2.26125,-2.23875 l -2.4975,0 0,8.01 2.55375,0 c 1.92375,0 2.32875,-1.54126 2.32875,-2.2725 m -1.58625,-3.38625 c 0,0.70874 -0.41625,0.82125 -0.7425,0.82125 l -1.09125,0 0,-1.72125 1.02375,0 c 0.30375,0 0.81,0.0788 0.81,0.79875 l 0,0.10125 m 0.12375,3.375 c 0,0.73124 -0.57375,0.8325 -0.88875,0.8325 l -1.06875,0 0,-1.94625 1.125,0 c 0.34875,0 0.8325,0.135 0.8325,0.8775 l 0,0.23625"
         style="font-size:11.25px;font-variant:normal;font-weight:900;font-stretch:normal;writing-mode:lr-tb;fill:#ffffff;font-family:TSTAR PRO Heavy;-inkscape-font-specification:TSTARPRO-Heavy"
         id="path4670" />
      <path
         d="m 426.43501,536.34467 0,-7.99875 -1.4625,0 0,3.105 -2.03625,0 0,-3.105 -1.4625,0 0,7.99875 1.4625,0 0,-3.4425 2.03625,0 0,3.4425 1.4625,0"
         style="font-size:11.25px;font-variant:normal;font-weight:900;font-stretch:normal;writing-mode:lr-tb;fill:#ffffff;font-family:TSTAR PRO Heavy;-inkscape-font-specification:TSTARPRO-Heavy"
         id="path4672" />
    </g>
  </g>
</svg>
